NotoSansThaana-Light.ufo
<glyph name="exclam" format="2">
  <advance width="402"/>
  <unicode hex="0021"/>
  <outline>
    <contour>
      <point x="192" y="227" type="curve" smooth="yes"/>
      <point x="201" y="227"/>
      <point x="208" y="231"/>
      <point x="214" y="254" type="curve" smooth="yes"/>
      <point x="228" y="308"/>
      <point x="238" y="342"/>
      <point x="282" y="479" type="curve" smooth="yes"/>
      <point x="324" y="609"/>
      <point x="359" y="678"/>
      <point x="367" y="697" type="curve" smooth="yes"/>
      <point x="375" y="715"/>
      <point x="377" y="722"/>
      <point x="377" y="728" type="curve" smooth="yes"/>
      <point x="377" y="732"/>
      <point x="372" y="734"/>
      <point x="368" y="734" type="curve" smooth="yes"/>
      <point x="358" y="734"/>
      <point x="352" y="726"/>
      <point x="337" y="696" type="curve" smooth="yes"/>
      <point x="322" y="666"/>
      <point x="284" y="572"/>
      <point x="246" y="465" type="curve" smooth="yes"/>
      <point x="210" y="363"/>
      <point x="182" y="260"/>
      <point x="182" y="242" type="curve" smooth="yes"/>
      <point x="182" y="231"/>
      <point x="186" y="227"/>
    </contour>
    <contour>
      <point x="162" y="-4" type="curve" smooth="yes"/>
      <point x="189" y="-4"/>
      <point x="208" y="13"/>
      <point x="208" y="31" type="curve" smooth="yes"/>
      <point x="208" y="47"/>
      <point x="197" y="60"/>
      <point x="171" y="60" type="curve" smooth="yes"/>
      <point x="144" y="60"/>
      <point x="124" y="42"/>
      <point x="124" y="23" type="curve" smooth="yes"/>
      <point x="124" y="7"/>
      <point x="138" y="-4"/>
    </contour>
  </outline>
</glyph>
<glyph name="parenleft" format="2">
  <advance width="488"/>
  <unicode hex="0028"/>
  <outline>
    <contour>
      <point x="250" y="-244" type="curve" smooth="yes"/>
      <point x="260" y="-244"/>
      <point x="264" y="-237"/>
      <point x="264" y="-230" type="curve" smooth="yes"/>
      <point x="264" y="-224"/>
      <point x="257" y="-216"/>
      <point x="239" y="-196" type="curve" smooth="yes"/>
      <point x="192" y="-146"/>
      <point x="127" y="-53"/>
      <point x="127" y="93" type="curve" smooth="yes"/>
      <point x="127" y="327"/>
      <point x="293" y="594"/>
      <point x="524" y="684" type="curve" smooth="yes"/>
      <point x="565" y="700"/>
      <point x="571" y="703"/>
      <point x="571" y="709" type="curve" smooth="yes"/>
      <point x="571" y="714"/>
      <point x="567" y="719"/>
      <point x="558" y="719" type="curve" smooth="yes"/>
      <point x="542" y="719"/>
      <point x="510" y="709"/>
      <point x="495" y="702" type="curve" smooth="yes"/>
      <point x="259" y="601"/>
      <point x="103" y="332"/>
      <point x="103" y="93" type="curve" smooth="yes"/>
      <point x="103" y="-70"/>
      <point x="172" y="-173"/>
      <point x="210" y="-215" type="curve" smooth="yes"/>
      <point x="231" y="-238"/>
      <point x="240" y="-244"/>
    </contour>
  </outline>
</glyph>
<glyph name="parenright" format="2">
  <advance width="488"/>
  <unicode hex="0029"/>
  <outline>
    <contour>
      <point x="-34" y="-244" type="curve" smooth="yes"/>
      <point x="-18" y="-244"/>
      <point x="14" y="-234"/>
      <point x="29" y="-227" type="curve" smooth="yes"/>
      <point x="262" y="-118"/>
      <point x="421" y="144"/>
      <point x="421" y="383" type="curve" smooth="yes"/>
      <point x="421" y="546"/>
      <point x="352" y="649"/>
      <point x="314" y="691" type="curve" smooth="yes"/>
      <point x="293" y="714"/>
      <point x="284" y="720"/>
      <point x="274" y="720" type="curve" smooth="yes"/>
      <point x="264" y="720"/>
      <point x="260" y="713"/>
      <point x="260" y="706" type="curve" smooth="yes"/>
      <point x="260" y="700"/>
      <point x="266" y="691"/>
      <point x="285" y="672" type="curve" smooth="yes"/>
      <point x="334" y="623"/>
      <point x="397" y="529"/>
      <point x="397" y="383" type="curve" smooth="yes"/>
      <point x="397" y="149"/>
      <point x="231" y="-119"/>
      <point x="0" y="-209" type="curve" smooth="yes"/>
      <point x="-41" y="-225"/>
      <point x="-47" y="-228"/>
      <point x="-47" y="-234" type="curve" smooth="yes"/>
      <point x="-47" y="-239"/>
      <point x="-43" y="-244"/>
    </contour>
  </outline>
</glyph>
<glyph name="comma" format="2">
  <advance width="364"/>
  <unicode hex="002C"/>
  <outline>
    <contour>
      <point x="136" y="-113" type="curve" smooth="yes"/>
      <point x="144" y="-113"/>
      <point x="153" y="-104"/>
      <point x="170" y="-81" type="curve" smooth="yes"/>
      <point x="182" y="-65"/>
      <point x="217" y="-9"/>
      <point x="217" y="20" type="curve" smooth="yes"/>
      <point x="217" y="45"/>
      <point x="203" y="53"/>
      <point x="181" y="53" type="curve" smooth="yes"/>
      <point x="157" y="53"/>
      <point x="142" y="38"/>
      <point x="142" y="20" type="curve" smooth="yes"/>
      <point x="142" y="5"/>
      <point x="158" y="-7"/>
      <point x="181" y="-12" type="curve"/>
      <point x="169" y="-49"/>
      <point x="147" y="-81"/>
      <point x="139" y="-91" type="curve" smooth="yes"/>
      <point x="132" y="-100"/>
      <point x="129" y="-104"/>
      <point x="129" y="-108" type="curve" smooth="yes"/>
      <point x="129" y="-112"/>
      <point x="133" y="-113"/>
    </contour>
  </outline>
</glyph>
<glyph name="period" format="2">
  <advance width="364"/>
  <unicode hex="002E"/>
  <outline>
    <contour>
      <point x="162" y="-4" type="curve" smooth="yes"/>
      <point x="189" y="-4"/>
      <point x="208" y="13"/>
      <point x="208" y="31" type="curve" smooth="yes"/>
      <point x="208" y="47"/>
      <point x="197" y="60"/>
      <point x="171" y="60" type="curve" smooth="yes"/>
      <point x="144" y="60"/>
      <point x="124" y="42"/>
      <point x="124" y="23" type="curve" smooth="yes"/>
      <point x="124" y="7"/>
      <point x="138" y="-4"/>
    </contour>
  </outline>
</glyph>
<glyph name="colon" format="2">
  <advance width="364"/>
  <unicode hex="003A"/>
  <outline>
    <contour>
      <point x="193" y="256" type="curve" smooth="yes"/>
      <point x="220" y="256"/>
      <point x="240" y="274"/>
      <point x="240" y="293" type="curve" smooth="yes"/>
      <point x="240" y="309"/>
      <point x="226" y="320"/>
      <point x="202" y="320" type="curve" smooth="yes"/>
      <point x="175" y="320"/>
      <point x="156" y="303"/>
      <point x="156" y="285" type="curve" smooth="yes"/>
      <point x="156" y="269"/>
      <point x="167" y="256"/>
    </contour>
    <contour>
      <point x="162" y="-4" type="curve" smooth="yes"/>
      <point x="189" y="-4"/>
      <point x="208" y="13"/>
      <point x="208" y="31" type="curve" smooth="yes"/>
      <point x="208" y="47"/>
      <point x="197" y="60"/>
      <point x="171" y="60" type="curve" smooth="yes"/>
      <point x="144" y="60"/>
      <point x="124" y="42"/>
      <point x="124" y="23" type="curve" smooth="yes"/>
      <point x="124" y="7"/>
      <point x="138" y="-4"/>
    </contour>
  </outline>
</glyph>
<glyph name="semicolon" format="2">
  <advance width="364"/>
  <unicode hex="003B"/>
  <outline>
    <contour>
      <point x="121" y="-113" type="curve" smooth="yes"/>
      <point x="128" y="-113"/>
      <point x="139" y="-104"/>
      <point x="155" y="-81" type="curve" smooth="yes"/>
      <point x="165" y="-66"/>
      <point x="202" y="-9"/>
      <point x="202" y="20" type="curve" smooth="yes"/>
      <point x="202" y="45"/>
      <point x="188" y="53"/>
      <point x="166" y="53" type="curve" smooth="yes"/>
      <point x="143" y="53"/>
      <point x="127" y="38"/>
      <point x="127" y="20" type="curve" smooth="yes"/>
      <point x="127" y="5"/>
      <point x="143" y="-7"/>
      <point x="166" y="-12" type="curve"/>
      <point x="154" y="-49"/>
      <point x="132" y="-81"/>
      <point x="124" y="-91" type="curve" smooth="yes"/>
      <point x="117" y="-100"/>
      <point x="114" y="-104"/>
      <point x="114" y="-108" type="curve" smooth="yes"/>
      <point x="114" y="-111"/>
      <point x="118" y="-113"/>
    </contour>
    <contour>
      <point x="193" y="256" type="curve" smooth="yes"/>
      <point x="220" y="256"/>
      <point x="240" y="274"/>
      <point x="240" y="293" type="curve" smooth="yes"/>
      <point x="240" y="309"/>
      <point x="226" y="320"/>
      <point x="202" y="320" type="curve" smooth="yes"/>
      <point x="175" y="320"/>
      <point x="156" y="303"/>
      <point x="156" y="285" type="curve" smooth="yes"/>
      <point x="156" y="269"/>
      <point x="167" y="256"/>
    </contour>
  </outline>
</glyph>
<glyph name="uni060C" format="2">
  <advance width="284"/>
  <unicode hex="060C"/>
  <outline>
    <contour>
      <point x="127" y="-9" type="curve" smooth="yes"/>
      <point x="149" y="-9"/>
      <point x="166" y="6"/>
      <point x="166" y="24" type="curve" smooth="yes"/>
      <point x="166" y="39"/>
      <point x="150" y="51"/>
      <point x="127" y="56" type="curve"/>
      <point x="139" y="93"/>
      <point x="161" y="125"/>
      <point x="169" y="135" type="curve" smooth="yes"/>
      <point x="176" y="144"/>
      <point x="179" y="148"/>
      <point x="179" y="152" type="curve" smooth="yes"/>
      <point x="179" y="155"/>
      <point x="175" y="157"/>
      <point x="172" y="157" type="curve" smooth="yes"/>
      <point x="165" y="157"/>
      <point x="154" y="148"/>
      <point x="138" y="125" type="curve" smooth="yes"/>
      <point x="128" y="110"/>
      <point x="91" y="53"/>
      <point x="91" y="24" type="curve" smooth="yes"/>
      <point x="91" y="-1"/>
      <point x="104" y="-9"/>
    </contour>
  </outline>
</glyph>
<glyph name="uni061B" format="2">
  <advance width="364"/>
  <unicode hex="061B"/>
  <outline>
    <contour>
      <point x="198" y="263" type="curve" smooth="yes"/>
      <point x="221" y="263"/>
      <point x="237" y="278"/>
      <point x="237" y="296" type="curve" smooth="yes"/>
      <point x="237" y="311"/>
      <point x="221" y="323"/>
      <point x="198" y="328" type="curve"/>
      <point x="210" y="365"/>
      <point x="232" y="397"/>
      <point x="240" y="407" type="curve" smooth="yes"/>
      <point x="247" y="416"/>
      <point x="250" y="420"/>
      <point x="250" y="424" type="curve" smooth="yes"/>
      <point x="250" y="427"/>
      <point x="246" y="429"/>
      <point x="243" y="429" type="curve" smooth="yes"/>
      <point x="236" y="429"/>
      <point x="225" y="420"/>
      <point x="209" y="397" type="curve" smooth="yes"/>
      <point x="199" y="382"/>
      <point x="162" y="325"/>
      <point x="162" y="296" type="curve" smooth="yes"/>
      <point x="162" y="271"/>
      <point x="176" y="263"/>
    </contour>
    <contour>
      <point x="162" y="-4" type="curve" smooth="yes"/>
      <point x="189" y="-4"/>
      <point x="208" y="13"/>
      <point x="208" y="31" type="curve" smooth="yes"/>
      <point x="208" y="47"/>
      <point x="197" y="60"/>
      <point x="171" y="60" type="curve" smooth="yes"/>
      <point x="144" y="60"/>
      <point x="124" y="42"/>
      <point x="124" y="23" type="curve" smooth="yes"/>
      <point x="124" y="7"/>
      <point x="138" y="-4"/>
    </contour>
  </outline>
</glyph>
<glyph name="uni061F" format="2">
  <advance width="479"/>
  <unicode hex="061F"/>
  <outline>
    <contour>
      <point x="215" y="208" type="curve" smooth="yes"/>
      <point x="223" y="208"/>
      <point x="233" y="228"/>
      <point x="242" y="246" type="curve" smooth="yes"/>
      <point x="251" y="264"/>
      <point x="257" y="287"/>
      <point x="257" y="316" type="curve" smooth="yes"/>
      <point x="257" y="348"/>
      <point x="238" y="386"/>
      <point x="218" y="418" type="curve" smooth="yes"/>
      <point x="195" y="455"/>
      <point x="170" y="490"/>
      <point x="170" y="542" type="curve" smooth="yes"/>
      <point x="170" y="636"/>
      <point x="257" y="693"/>
      <point x="352" y="693" type="curve" smooth="yes"/>
      <point x="398" y="693"/>
      <point x="435" y="666"/>
      <point x="455" y="652" type="curve" smooth="yes"/>
      <point x="470" y="641"/>
      <point x="479" y="632"/>
      <point x="489" y="632" type="curve" smooth="yes"/>
      <point x="493" y="632"/>
      <point x="501" y="638"/>
      <point x="501" y="647" type="curve" smooth="yes"/>
      <point x="501" y="651"/>
      <point x="498" y="657"/>
      <point x="491" y="662" type="curve" smooth="yes"/>
      <point x="475" y="675"/>
      <point x="421" y="714"/>
      <point x="352" y="714" type="curve" smooth="yes"/>
      <point x="245" y="714"/>
      <point x="148" y="645"/>
      <point x="148" y="540" type="curve" smooth="yes"/>
      <point x="148" y="488"/>
      <point x="171" y="451"/>
      <point x="193" y="418" type="curve" smooth="yes"/>
      <point x="217" y="382"/>
      <point x="235" y="346"/>
      <point x="235" y="316" type="curve" smooth="yes"/>
      <point x="235" y="281"/>
      <point x="221" y="265"/>
      <point x="214" y="253" type="curve" smooth="yes"/>
      <point x="204" y="237"/>
      <point x="198" y="226"/>
      <point x="198" y="221" type="curve" smooth="yes"/>
      <point x="198" y="213"/>
      <point x="207" y="208"/>
    </contour>
    <contour>
      <point x="162" y="-4" type="curve" smooth="yes"/>
      <point x="189" y="-4"/>
      <point x="208" y="13"/>
      <point x="208" y="31" type="curve" smooth="yes"/>
      <point x="208" y="47"/>
      <point x="197" y="60"/>
      <point x="171" y="60" type="curve" smooth="yes"/>
      <point x="144" y="60"/>
      <point x="124" y="42"/>
      <point x="124" y="23" type="curve" smooth="yes"/>
      <point x="124" y="7"/>
      <point x="138" y="-4"/>
    </contour>
  </outline>
</glyph>
<glyph name="uni0660" format="2">
  <advance width="314"/>
  <unicode hex="0660"/>
  <outline>
    <contour>
      <point x="122" y="382" type="curve" smooth="yes"/>
      <point x="122" y="360"/>
      <point x="146" y="326"/>
      <point x="165" y="326" type="curve" smooth="yes"/>
      <point x="175" y="326"/>
      <point x="192" y="335"/>
      <point x="192" y="350" type="curve" smooth="yes"/>
      <point x="192" y="377"/>
      <point x="177" y="410"/>
      <point x="159" y="410" type="curve" smooth="yes"/>
      <point x="143" y="410"/>
      <point x="122" y="400"/>
    </contour>
  </outline>
</glyph>
<glyph name="uni0661" format="2">
  <advance width="316"/>
  <unicode hex="0661"/>
  <outline>
    <contour>
      <point x="173" y="149" type="curve" smooth="yes"/>
      <point x="178" y="149"/>
      <point x="180" y="153"/>
      <point x="182" y="161" type="curve" smooth="yes"/>
      <point x="184" y="168"/>
      <point x="191" y="222"/>
      <point x="191" y="281" type="curve" smooth="yes"/>
      <point x="191" y="351"/>
      <point x="182" y="436"/>
      <point x="162" y="527" type="curve" smooth="yes"/>
      <point x="146" y="600"/>
      <point x="121" y="666"/>
      <point x="104" y="689" type="curve" smooth="yes"/>
      <point x="98" y="698"/>
      <point x="92" y="701"/>
      <point x="86" y="701" type="curve" smooth="yes"/>
      <point x="78" y="701"/>
      <point x="71" y="695"/>
      <point x="71" y="688" type="curve" smooth="yes"/>
      <point x="71" y="682"/>
      <point x="73" y="675"/>
      <point x="79" y="665" type="curve" smooth="yes"/>
      <point x="103" y="622"/>
      <point x="117" y="588"/>
      <point x="137" y="508" type="curve" smooth="yes"/>
      <point x="158" y="426"/>
      <point x="170" y="338"/>
      <point x="170" y="270" type="curve" smooth="yes"/>
      <point x="170" y="234"/>
      <point x="169" y="216"/>
      <point x="168" y="200" type="curve" smooth="yes"/>
      <point x="167" y="180"/>
      <point x="165" y="164"/>
      <point x="165" y="161" type="curve" smooth="yes"/>
      <point x="165" y="152"/>
      <point x="168" y="149"/>
    </contour>
  </outline>
</glyph>
<glyph name="uni0662" format="2">
  <advance width="405"/>
  <unicode hex="0662"/>
  <outline>
    <contour>
      <point x="366" y="682" type="curve" smooth="yes"/>
      <point x="359" y="682"/>
      <point x="354" y="675"/>
      <point x="349" y="665" type="curve" smooth="yes"/>
      <point x="324" y="614"/>
      <point x="285" y="584"/>
      <point x="230" y="584" type="curve" smooth="yes"/>
      <point x="197" y="584"/>
      <point x="155" y="590"/>
      <point x="124" y="619" type="curve"/>
      <point x="109" y="652"/>
      <point x="92" y="679"/>
      <point x="76" y="695" type="curve" smooth="yes"/>
      <point x="73" y="698"/>
      <point x="69" y="700"/>
      <point x="64" y="700" type="curve" smooth="yes"/>
      <point x="56" y="700"/>
      <point x="50" y="695"/>
      <point x="50" y="687" type="curve" smooth="yes"/>
      <point x="50" y="683"/>
      <point x="51" y="679"/>
      <point x="54" y="675" type="curve" smooth="yes"/>
      <point x="122" y="584"/>
      <point x="184" y="389"/>
      <point x="184" y="270" type="curve" smooth="yes"/>
      <point x="184" y="234"/>
      <point x="183" y="216"/>
      <point x="182" y="200" type="curve" smooth="yes"/>
      <point x="181" y="180"/>
      <point x="179" y="164"/>
      <point x="179" y="161" type="curve" smooth="yes"/>
      <point x="179" y="152"/>
      <point x="182" y="149"/>
      <point x="187" y="149" type="curve" smooth="yes"/>
      <point x="192" y="149"/>
      <point x="194" y="153"/>
      <point x="196" y="161" type="curve" smooth="yes"/>
      <point x="198" y="168"/>
      <point x="205" y="222"/>
      <point x="205" y="279" type="curve" smooth="yes"/>
      <point x="205" y="366"/>
      <point x="176" y="492"/>
      <point x="138" y="586" type="curve"/>
      <point x="166" y="568"/>
      <point x="196" y="561"/>
      <point x="228" y="561" type="curve" smooth="yes"/>
      <point x="282" y="561"/>
      <point x="328" y="582"/>
      <point x="367" y="647" type="curve" smooth="yes"/>
      <point x="373" y="657"/>
      <point x="377" y="666"/>
      <point x="377" y="674" type="curve" smooth="yes"/>
      <point x="377" y="679"/>
      <point x="373" y="682"/>
    </contour>
  </outline>
</glyph>
<glyph name="uni0663" format="2">
  <advance width="448"/>
  <unicode hex="0663"/>
  <outline>
    <contour>
      <point x="187" y="149" type="curve" smooth="yes"/>
      <point x="192" y="149"/>
      <point x="194" y="153"/>
      <point x="196" y="161" type="curve" smooth="yes"/>
      <point x="198" y="168"/>
      <point x="205" y="222"/>
      <point x="205" y="286" type="curve" smooth="yes"/>
      <point x="205" y="376"/>
      <point x="176" y="487"/>
      <point x="142" y="572" type="curve"/>
      <point x="157" y="564"/>
      <point x="174" y="561"/>
      <point x="193" y="561" type="curve" smooth="yes"/>
      <point x="215" y="561"/>
      <point x="236" y="571"/>
      <point x="256" y="595" type="curve"/>
      <point x="275" y="582"/>
      <point x="292" y="577"/>
      <point x="315" y="577" type="curve" smooth="yes"/>
      <point x="349" y="577"/>
      <point x="381" y="604"/>
      <point x="412" y="673" type="curve" smooth="yes"/>
      <point x="417" y="684"/>
      <point x="420" y="692"/>
      <point x="420" y="700" type="curve" smooth="yes"/>
      <point x="420" y="705"/>
      <point x="416" y="708"/>
      <point x="409" y="708" type="curve" smooth="yes"/>
      <point x="402" y="708"/>
      <point x="398" y="702"/>
      <point x="394" y="691" type="curve" smooth="yes"/>
      <point x="374" y="636"/>
      <point x="351" y="599"/>
      <point x="315" y="599" type="curve" smooth="yes"/>
      <point x="300" y="599"/>
      <point x="283" y="600"/>
      <point x="267" y="610" type="curve"/>
      <point x="277" y="625"/>
      <point x="287" y="644"/>
      <point x="297" y="667" type="curve" smooth="yes"/>
      <point x="302" y="678"/>
      <point x="305" y="685"/>
      <point x="305" y="693" type="curve" smooth="yes"/>
      <point x="305" y="698"/>
      <point x="301" y="702"/>
      <point x="294" y="702" type="curve" smooth="yes"/>
      <point x="287" y="702"/>
      <point x="283" y="696"/>
      <point x="279" y="685" type="curve" smooth="yes"/>
      <point x="259" y="623"/>
      <point x="231" y="583"/>
      <point x="190" y="583" type="curve" smooth="yes"/>
      <point x="171" y="583"/>
      <point x="149" y="586"/>
      <point x="130" y="602" type="curve"/>
      <point x="111" y="646"/>
      <point x="91" y="680"/>
      <point x="76" y="695" type="curve" smooth="yes"/>
      <point x="73" y="698"/>
      <point x="69" y="700"/>
      <point x="64" y="700" type="curve" smooth="yes"/>
      <point x="56" y="700"/>
      <point x="50" y="695"/>
      <point x="50" y="687" type="curve" smooth="yes"/>
      <point x="50" y="683"/>
      <point x="51" y="679"/>
      <point x="54" y="675" type="curve" smooth="yes"/>
      <point x="122" y="584"/>
      <point x="184" y="401"/>
      <point x="184" y="270" type="curve" smooth="yes"/>
      <point x="184" y="234"/>
      <point x="183" y="216"/>
      <point x="182" y="200" type="curve" smooth="yes"/>
      <point x="181" y="180"/>
      <point x="179" y="164"/>
      <point x="179" y="161" type="curve" smooth="yes"/>
      <point x="179" y="152"/>
      <point x="182" y="149"/>
    </contour>
  </outline>
</glyph>
<glyph name="uni0664" format="2">
  <advance width="391"/>
  <unicode hex="0664"/>
  <outline>
    <contour>
      <point x="297" y="140" type="curve" smooth="yes"/>
      <point x="347" y="140"/>
      <point x="361" y="146"/>
      <point x="361" y="158" type="curve" smooth="yes"/>
      <point x="361" y="171"/>
      <point x="358" y="175"/>
      <point x="349" y="175" type="curve" smooth="yes"/>
      <point x="337" y="175"/>
      <point x="321" y="170"/>
      <point x="295" y="170" type="curve" smooth="yes"/>
      <point x="217" y="170"/>
      <point x="114" y="190"/>
      <point x="114" y="256" type="curve" smooth="yes"/>
      <point x="114" y="312"/>
      <point x="167" y="380"/>
      <point x="257" y="441" type="curve" smooth="yes"/>
      <point x="268" y="448"/>
      <point x="273" y="450"/>
      <point x="273" y="458" type="curve" smooth="yes"/>
      <point x="273" y="468"/>
      <point x="266" y="474"/>
      <point x="241" y="485" type="curve" smooth="yes"/>
      <point x="214" y="497"/>
      <point x="125" y="537"/>
      <point x="83" y="574" type="curve"/>
      <point x="108" y="599"/>
      <point x="194" y="658"/>
      <point x="225" y="674" type="curve" smooth="yes"/>
      <point x="241" y="682"/>
      <point x="244" y="686"/>
      <point x="244" y="690" type="curve" smooth="yes"/>
      <point x="244" y="694"/>
      <point x="240" y="699"/>
      <point x="232" y="699" type="curve" smooth="yes"/>
      <point x="222" y="699"/>
      <point x="212" y="695"/>
      <point x="193" y="682" type="curve" smooth="yes"/>
      <point x="163" y="662"/>
      <point x="107" y="618"/>
      <point x="86" y="599" type="curve" smooth="yes"/>
      <point x="73" y="587"/>
      <point x="60" y="576"/>
      <point x="60" y="567" type="curve" smooth="yes"/>
      <point x="60" y="560"/>
      <point x="70" y="554"/>
      <point x="78" y="548" type="curve" smooth="yes"/>
      <point x="119" y="517"/>
      <point x="194" y="482"/>
      <point x="248" y="457" type="curve"/>
      <point x="150" y="390"/>
      <point x="89" y="318"/>
      <point x="89" y="258" type="curve" smooth="yes"/>
      <point x="89" y="180"/>
      <point x="204" y="140"/>
    </contour>
  </outline>
</glyph>
<glyph name="uni0665" format="2">
  <advance width="420"/>
  <unicode hex="0665"/>
  <outline>
    <contour>
      <point x="214" y="193" type="curve" smooth="yes"/>
      <point x="323" y="193"/>
      <point x="370" y="262"/>
      <point x="370" y="347" type="curve" smooth="yes"/>
      <point x="370" y="488"/>
      <point x="291" y="654"/>
      <point x="202" y="654" type="curve" smooth="yes"/>
      <point x="133" y="654"/>
      <point x="50" y="476"/>
      <point x="50" y="336" type="curve" smooth="yes"/>
      <point x="50" y="238"/>
      <point x="113" y="193"/>
    </contour>
    <contour>
      <point x="215" y="222" type="curve" smooth="yes"/>
      <point x="127" y="222"/>
      <point x="73" y="263"/>
      <point x="73" y="339" type="curve" smooth="yes"/>
      <point x="73" y="460"/>
      <point x="145" y="626"/>
      <point x="198" y="626" type="curve" smooth="yes"/>
      <point x="285" y="626"/>
      <point x="348" y="464"/>
      <point x="348" y="346" type="curve" smooth="yes"/>
      <point x="348" y="273"/>
      <point x="305" y="222"/>
    </contour>
  </outline>
</glyph>
<glyph name="uni0666" format="2">
  <advance width="441"/>
  <unicode hex="0666"/>
  <outline>
    <contour>
      <point x="384" y="149" type="curve" smooth="yes"/>
      <point x="392" y="149"/>
      <point x="401" y="154"/>
      <point x="401" y="162" type="curve" smooth="yes"/>
      <point x="401" y="166"/>
      <point x="399" y="174"/>
      <point x="389" y="190" type="curve" smooth="yes"/>
      <point x="375" y="212"/>
      <point x="355" y="261"/>
      <point x="335" y="341" type="curve" smooth="yes"/>
      <point x="314" y="423"/>
      <point x="302" y="511"/>
      <point x="302" y="579" type="curve" smooth="yes"/>
      <point x="302" y="615"/>
      <point x="303" y="633"/>
      <point x="304" y="649" type="curve" smooth="yes"/>
      <point x="305" y="669"/>
      <point x="307" y="685"/>
      <point x="307" y="688" type="curve" smooth="yes"/>
      <point x="307" y="697"/>
      <point x="304" y="700"/>
      <point x="299" y="700" type="curve" smooth="yes"/>
      <point x="295" y="700"/>
      <point x="293" y="697"/>
      <point x="291" y="691" type="curve"/>
      <point x="273" y="673"/>
      <point x="225" y="656"/>
      <point x="166" y="656" type="curve" smooth="yes"/>
      <point x="129" y="656"/>
      <point x="106" y="660"/>
      <point x="73" y="674" type="curve" smooth="yes"/>
      <point x="51" y="683"/>
      <point x="42" y="692"/>
      <point x="35" y="692" type="curve" smooth="yes"/>
      <point x="29" y="692"/>
      <point x="24" y="688"/>
      <point x="24" y="680" type="curve" smooth="yes"/>
      <point x="24" y="671"/>
      <point x="30" y="662"/>
      <point x="44" y="654" type="curve" smooth="yes"/>
      <point x="76" y="637"/>
      <point x="124" y="632"/>
      <point x="158" y="632" type="curve" smooth="yes"/>
      <point x="210" y="632"/>
      <point x="258" y="649"/>
      <point x="287" y="668" type="curve"/>
      <point x="284" y="646"/>
      <point x="280" y="611"/>
      <point x="280" y="579" type="curve" smooth="yes"/>
      <point x="280" y="518"/>
      <point x="288" y="412"/>
      <point x="305" y="337" type="curve" smooth="yes"/>
      <point x="324" y="251"/>
      <point x="357" y="170"/>
      <point x="365" y="159" type="curve" smooth="yes"/>
      <point x="371" y="151"/>
      <point x="379" y="149"/>
    </contour>
  </outline>
</glyph>
<glyph name="uni0667" format="2">
  <advance width="419"/>
  <unicode hex="0667"/>
  <outline>
    <contour>
      <point x="231" y="179" type="curve" smooth="yes"/>
      <point x="265" y="349"/>
      <point x="342" y="554"/>
      <point x="387" y="644" type="curve" smooth="yes"/>
      <point x="393" y="656"/>
      <point x="394" y="660"/>
      <point x="394" y="665" type="curve" smooth="yes"/>
      <point x="394" y="670"/>
      <point x="388" y="674"/>
      <point x="378" y="674" type="curve" smooth="yes"/>
      <point x="367" y="674"/>
      <point x="362" y="664"/>
      <point x="358" y="655" type="curve" smooth="yes"/>
      <point x="306" y="536"/>
      <point x="254" y="393"/>
      <point x="217" y="200" type="curve"/>
      <point x="170" y="443"/>
      <point x="92" y="611"/>
      <point x="56" y="656" type="curve" smooth="yes"/>
      <point x="52" y="661"/>
      <point x="49" y="664"/>
      <point x="42" y="664" type="curve" smooth="yes"/>
      <point x="32" y="664"/>
      <point x="25" y="658"/>
      <point x="25" y="652" type="curve" smooth="yes"/>
      <point x="25" y="648"/>
      <point x="26" y="645"/>
      <point x="30" y="640" type="curve" smooth="yes"/>
      <point x="63" y="599"/>
      <point x="143" y="447"/>
      <point x="201" y="184" type="curve" smooth="yes"/>
      <point x="205" y="166"/>
      <point x="209" y="155"/>
      <point x="216" y="155" type="curve" smooth="yes"/>
      <point x="225" y="155"/>
      <point x="227" y="159"/>
    </contour>
  </outline>
</glyph>
<glyph name="uni0668" format="2">
  <advance width="419"/>
  <unicode hex="0668"/>
  <outline>
    <contour>
      <point x="41" y="155" type="curve" smooth="yes"/>
      <point x="52" y="155"/>
      <point x="57" y="165"/>
      <point x="61" y="174" type="curve" smooth="yes"/>
      <point x="113" y="293"/>
      <point x="165" y="436"/>
      <point x="202" y="629" type="curve"/>
      <point x="249" y="386"/>
      <point x="327" y="218"/>
      <point x="363" y="173" type="curve" smooth="yes"/>
      <point x="367" y="168"/>
      <point x="370" y="165"/>
      <point x="377" y="165" type="curve" smooth="yes"/>
      <point x="387" y="165"/>
      <point x="394" y="171"/>
      <point x="394" y="177" type="curve" smooth="yes"/>
      <point x="394" y="181"/>
      <point x="393" y="184"/>
      <point x="389" y="189" type="curve" smooth="yes"/>
      <point x="356" y="230"/>
      <point x="276" y="382"/>
      <point x="218" y="645" type="curve" smooth="yes"/>
      <point x="214" y="663"/>
      <point x="210" y="674"/>
      <point x="203" y="674" type="curve" smooth="yes"/>
      <point x="194" y="674"/>
      <point x="192" y="670"/>
      <point x="188" y="650" type="curve" smooth="yes"/>
      <point x="154" y="480"/>
      <point x="77" y="275"/>
      <point x="32" y="185" type="curve" smooth="yes"/>
      <point x="26" y="173"/>
      <point x="25" y="169"/>
      <point x="25" y="164" type="curve" smooth="yes"/>
      <point x="25" y="159"/>
      <point x="31" y="155"/>
    </contour>
  </outline>
</glyph>
<glyph name="uni0669" format="2">
  <advance width="423"/>
  <unicode hex="0669"/>
  <outline>
    <contour>
      <point x="377" y="149" type="curve" smooth="yes"/>
      <point x="385" y="149"/>
      <point x="391" y="154"/>
      <point x="391" y="162" type="curve" smooth="yes"/>
      <point x="391" y="166"/>
      <point x="390" y="170"/>
      <point x="387" y="174" type="curve" smooth="yes"/>
      <point x="354" y="205"/>
      <point x="346" y="224"/>
      <point x="334" y="272" type="curve" smooth="yes"/>
      <point x="323" y="314"/>
      <point x="315" y="376"/>
      <point x="307" y="469" type="curve" smooth="yes"/>
      <point x="292" y="645"/>
      <point x="215" y="688"/>
      <point x="160" y="688" type="curve" smooth="yes"/>
      <point x="104" y="688"/>
      <point x="40" y="629"/>
      <point x="40" y="541" type="curve" smooth="yes"/>
      <point x="40" y="459"/>
      <point x="105" y="406"/>
      <point x="184" y="406" type="curve" smooth="yes"/>
      <point x="229" y="406"/>
      <point x="259" y="416"/>
      <point x="284" y="429" type="curve"/>
      <point x="290" y="366"/>
      <point x="298" y="295"/>
      <point x="310" y="249" type="curve" smooth="yes"/>
      <point x="320" y="209"/>
      <point x="346" y="167"/>
      <point x="365" y="154" type="curve" smooth="yes"/>
      <point x="368" y="151"/>
      <point x="372" y="149"/>
    </contour>
    <contour>
      <point x="183" y="427" type="curve" smooth="yes"/>
      <point x="113" y="427"/>
      <point x="64" y="473"/>
      <point x="64" y="540" type="curve" smooth="yes"/>
      <point x="64" y="608"/>
      <point x="105" y="664"/>
      <point x="160" y="664" type="curve" smooth="yes"/>
      <point x="202" y="664"/>
      <point x="272" y="637"/>
      <point x="282" y="449" type="curve"/>
      <point x="266" y="438"/>
      <point x="227" y="427"/>
    </contour>
  </outline>
</glyph>
<glyph name="uni066A" format="2">
  <advance width="456"/>
  <unicode hex="066A"/>
  <outline>
    <contour>
      <point x="106" y="180" type="curve" smooth="yes"/>
      <point x="109" y="180"/>
      <point x="114" y="183"/>
      <point x="116" y="190" type="curve" smooth="yes"/>
      <point x="117" y="193"/>
      <point x="132" y="251"/>
      <point x="147" y="294" type="curve" smooth="yes"/>
      <point x="170" y="358"/>
      <point x="212" y="436"/>
      <point x="259" y="506" type="curve" smooth="yes"/>
      <point x="305" y="575"/>
      <point x="329" y="604"/>
      <point x="368" y="634" type="curve" smooth="yes"/>
      <point x="380" y="643"/>
      <point x="385" y="649"/>
      <point x="385" y="657" type="curve" smooth="yes"/>
      <point x="385" y="665"/>
      <point x="379" y="670"/>
      <point x="368" y="670" type="curve" smooth="yes"/>
      <point x="363" y="670"/>
      <point x="358" y="669"/>
      <point x="352" y="665" type="curve" smooth="yes"/>
      <point x="329" y="650"/>
      <point x="283" y="595"/>
      <point x="242" y="532" type="curve" smooth="yes"/>
      <point x="192" y="455"/>
      <point x="155" y="377"/>
      <point x="131" y="311" type="curve" smooth="yes"/>
      <point x="111" y="256"/>
      <point x="98" y="198"/>
      <point x="98" y="191" type="curve" smooth="yes"/>
      <point x="98" y="185"/>
      <point x="101" y="180"/>
    </contour>
    <contour>
      <point x="114" y="561" type="curve" smooth="yes"/>
      <point x="124" y="561"/>
      <point x="141" y="570"/>
      <point x="141" y="585" type="curve" smooth="yes"/>
      <point x="141" y="612"/>
      <point x="126" y="645"/>
      <point x="108" y="645" type="curve" smooth="yes"/>
      <point x="92" y="645"/>
      <point x="71" y="635"/>
      <point x="71" y="617" type="curve" smooth="yes"/>
      <point x="71" y="595"/>
      <point x="95" y="561"/>
    </contour>
    <contour>
      <point x="326" y="232" type="curve" smooth="yes"/>
      <point x="336" y="232"/>
      <point x="353" y="241"/>
      <point x="353" y="256" type="curve" smooth="yes"/>
      <point x="353" y="283"/>
      <point x="338" y="316"/>
      <point x="320" y="316" type="curve" smooth="yes"/>
      <point x="304" y="316"/>
      <point x="283" y="306"/>
      <point x="283" y="288" type="curve" smooth="yes"/>
      <point x="283" y="266"/>
      <point x="307" y="232"/>
    </contour>
  </outline>
</glyph>
<glyph name="uni066B" format="2">
  <advance width="222"/>
  <unicode hex="066B"/>
  <outline>
    <contour>
      <point x="80" y="70" type="curve" smooth="yes"/>
      <point x="87" y="70"/>
      <point x="98" y="79"/>
      <point x="114" y="102" type="curve" smooth="yes"/>
      <point x="124" y="117"/>
      <point x="161" y="174"/>
      <point x="161" y="203" type="curve" smooth="yes"/>
      <point x="161" y="228"/>
      <point x="147" y="236"/>
      <point x="125" y="236" type="curve" smooth="yes"/>
      <point x="102" y="236"/>
      <point x="86" y="221"/>
      <point x="86" y="203" type="curve" smooth="yes"/>
      <point x="86" y="188"/>
      <point x="102" y="176"/>
      <point x="125" y="171" type="curve"/>
      <point x="113" y="134"/>
      <point x="91" y="102"/>
      <point x="83" y="92" type="curve" smooth="yes"/>
      <point x="76" y="83"/>
      <point x="73" y="79"/>
      <point x="73" y="75" type="curve" smooth="yes"/>
      <point x="73" y="72"/>
      <point x="77" y="70"/>
    </contour>
  </outline>
</glyph>
<glyph name="uni066C" format="2">
  <advance width="222"/>
  <unicode hex="066C"/>
  <outline>
    <contour>
      <point x="142" y="323" type="curve" smooth="yes"/>
      <point x="135" y="323"/>
      <point x="124" y="314"/>
      <point x="108" y="291" type="curve" smooth="yes"/>
      <point x="98" y="276"/>
      <point x="61" y="219"/>
      <point x="61" y="190" type="curve" smooth="yes"/>
      <point x="61" y="165"/>
      <point x="75" y="157"/>
      <point x="97" y="157" type="curve" smooth="yes"/>
      <point x="120" y="157"/>
      <point x="136" y="172"/>
      <point x="136" y="190" type="curve" smooth="yes"/>
      <point x="136" y="205"/>
      <point x="120" y="217"/>
      <point x="97" y="222" type="curve"/>
      <point x="109" y="259"/>
      <point x="131" y="291"/>
      <point x="139" y="301" type="curve" smooth="yes"/>
      <point x="146" y="310"/>
      <point x="149" y="314"/>
      <point x="149" y="318" type="curve" smooth="yes"/>
      <point x="149" y="321"/>
      <point x="145" y="323"/>
    </contour>
  </outline>
</glyph>
<glyph name="uni0781" format="2">
  <advance width="623"/>
  <unicode hex="0781"/>
  <outline>
    <contour>
      <point x="-29" y="-80" type="curve" smooth="yes"/>
      <point x="4" y="-80"/>
      <point x="97" y="-31"/>
      <point x="163" y="20" type="curve" smooth="yes"/>
      <point x="210" y="57"/>
      <point x="292" y="141"/>
      <point x="345" y="215" type="curve"/>
      <point x="356" y="213"/>
      <point x="366" y="213"/>
      <point x="376" y="213" type="curve" smooth="yes"/>
      <point x="461" y="213"/>
      <point x="542" y="259"/>
      <point x="591" y="298" type="curve" smooth="yes"/>
      <point x="603" y="307"/>
      <point x="609" y="313"/>
      <point x="609" y="320" type="curve" smooth="yes"/>
      <point x="609" y="325"/>
      <point x="606" y="329"/>
      <point x="599" y="329" type="curve" smooth="yes"/>
      <point x="593" y="329"/>
      <point x="586" y="323"/>
      <point x="574" y="313" type="curve" smooth="yes"/>
      <point x="516" y="266"/>
      <point x="453" y="232"/>
      <point x="364" y="233" type="curve"/>
      <point x="359" y="243"/>
      <point x="341" y="260"/>
      <point x="325" y="260" type="curve" smooth="yes"/>
      <point x="313" y="260"/>
      <point x="305" y="252"/>
      <point x="305" y="242" type="curve" smooth="yes"/>
      <point x="305" y="234"/>
      <point x="312" y="226"/>
      <point x="323" y="221" type="curve"/>
      <point x="271" y="151"/>
      <point x="208" y="85"/>
      <point x="146" y="38" type="curve" smooth="yes"/>
      <point x="82" y="-11"/>
      <point x="18" y="-35"/>
      <point x="-21" y="-47" type="curve" smooth="yes"/>
      <point x="-38" y="-52"/>
      <point x="-44" y="-56"/>
      <point x="-44" y="-66" type="curve" smooth="yes"/>
      <point x="-44" y="-72"/>
      <point x="-40" y="-80"/>
    </contour>
  </outline>
</glyph>
<glyph name="uni0782" format="2">
  <advance width="809"/>
  <unicode hex="0782"/>
  <outline>
    <contour>
      <point x="-29" y="-80" type="curve" smooth="yes"/>
      <point x="-13" y="-80"/>
      <point x="18" y="-69"/>
      <point x="54" y="-50" type="curve" smooth="yes"/>
      <point x="169" y="12"/>
      <point x="262" y="99"/>
      <point x="345" y="215" type="curve"/>
      <point x="356" y="213"/>
      <point x="366" y="213"/>
      <point x="376" y="213" type="curve" smooth="yes"/>
      <point x="428" y="213"/>
      <point x="467" y="235"/>
      <point x="504" y="260" type="curve"/>
      <point x="520" y="218"/>
      <point x="553" y="203"/>
      <point x="592" y="203" type="curve" smooth="yes"/>
      <point x="677" y="203"/>
      <point x="766" y="274"/>
      <point x="807" y="315" type="curve" smooth="yes"/>
      <point x="818" y="326"/>
      <point x="825" y="333"/>
      <point x="825" y="340" type="curve" smooth="yes"/>
      <point x="825" y="345"/>
      <point x="822" y="349"/>
      <point x="815" y="349" type="curve" smooth="yes"/>
      <point x="809" y="349"/>
      <point x="803" y="344"/>
      <point x="796" y="338" type="curve" smooth="yes"/>
      <point x="749" y="293"/>
      <point x="678" y="223"/>
      <point x="591" y="223" type="curve" smooth="yes"/>
      <point x="561" y="223"/>
      <point x="535" y="232"/>
      <point x="519" y="272" type="curve"/>
      <point x="528" y="280"/>
      <point x="534" y="286"/>
      <point x="534" y="292" type="curve" smooth="yes"/>
      <point x="534" y="297"/>
      <point x="531" y="301"/>
      <point x="524" y="301" type="curve" smooth="yes"/>
      <point x="518" y="301"/>
      <point x="512" y="295"/>
      <point x="503" y="287" type="curve" smooth="yes"/>
      <point x="464" y="252"/>
      <point x="421" y="232"/>
      <point x="364" y="233" type="curve"/>
      <point x="357" y="246"/>
      <point x="338" y="260"/>
      <point x="324" y="260" type="curve" smooth="yes"/>
      <point x="313" y="260"/>
      <point x="305" y="252"/>
      <point x="305" y="242" type="curve" smooth="yes"/>
      <point x="305" y="234"/>
      <point x="312" y="226"/>
      <point x="323" y="221" type="curve"/>
      <point x="232" y="98"/>
      <point x="122" y="-2"/>
      <point x="-21" y="-47" type="curve" smooth="yes"/>
      <point x="-38" y="-52"/>
      <point x="-44" y="-56"/>
      <point x="-44" y="-66" type="curve" smooth="yes"/>
      <point x="-44" y="-72"/>
      <point x="-40" y="-80"/>
    </contour>
  </outline>
</glyph>
<glyph name="uni0783" format="2">
  <advance width="649"/>
  <unicode hex="0783"/>
  <outline>
    <contour>
      <point x="-37" y="-72" type="curve" smooth="yes"/>
      <point x="-12" y="-72"/>
      <point x="67" y="-47"/>
      <point x="148" y="1" type="curve" smooth="yes"/>
      <point x="217" y="42"/>
      <point x="320" y="131"/>
      <point x="409" y="220" type="curve"/>
      <point x="457" y="198"/>
      <point x="521" y="180"/>
      <point x="577" y="180" type="curve" smooth="yes"/>
      <point x="588" y="180"/>
      <point x="594" y="185"/>
      <point x="594" y="192" type="curve" smooth="yes"/>
      <point x="594" y="200"/>
      <point x="584" y="202"/>
      <point x="551" y="205" type="curve" smooth="yes"/>
      <point x="511" y="209"/>
      <point x="460" y="224"/>
      <point x="428" y="236" type="curve"/>
      <point x="477" y="282"/>
      <point x="550" y="334"/>
      <point x="608" y="358" type="curve" smooth="yes"/>
      <point x="618" y="362"/>
      <point x="625" y="365"/>
      <point x="625" y="372" type="curve" smooth="yes"/>
      <point x="625" y="374"/>
      <point x="623" y="376"/>
      <point x="617" y="376" type="curve" smooth="yes"/>
      <point x="592" y="376"/>
      <point x="496" y="331"/>
      <point x="407" y="246" type="curve"/>
      <point x="346" y="276"/>
      <point x="336" y="287"/>
      <point x="328" y="287" type="curve" smooth="yes"/>
      <point x="321" y="287"/>
      <point x="317" y="282"/>
      <point x="317" y="276" type="curve" smooth="yes"/>
      <point x="317" y="271"/>
      <point x="332" y="260"/>
      <point x="390" y="230" type="curve"/>
      <point x="314" y="159"/>
      <point x="237" y="82"/>
      <point x="133" y="22" type="curve" smooth="yes"/>
      <point x="60" y="-20"/>
      <point x="17" y="-31"/>
      <point x="-38" y="-42" type="curve" smooth="yes"/>
      <point x="-48" y="-44"/>
      <point x="-53" y="-49"/>
      <point x="-53" y="-57" type="curve" smooth="yes"/>
      <point x="-53" y="-67"/>
      <point x="-45" y="-72"/>
    </contour>
  </outline>
</glyph>
<glyph name="uni0784" format="2">
  <advance width="712"/>
  <unicode hex="0784"/>
  <outline>
    <contour>
      <point x="274" y="-11" type="curve" smooth="yes"/>
      <point x="497" y="-11"/>
      <point x="675" y="127"/>
      <point x="675" y="235" type="curve" smooth="yes"/>
      <point x="675" y="287"/>
      <point x="635" y="329"/>
      <point x="555" y="329" type="curve" smooth="yes"/>
      <point x="482" y="329"/>
      <point x="433" y="291"/>
      <point x="392" y="249" type="curve"/>
      <point x="356" y="274"/>
      <point x="310" y="291"/>
      <point x="255" y="291" type="curve" smooth="yes"/>
      <point x="145" y="291"/>
      <point x="70" y="218"/>
      <point x="70" y="136" type="curve" smooth="yes"/>
      <point x="70" y="49"/>
      <point x="153" y="-11"/>
    </contour>
    <contour>
      <point x="243" y="11" type="curve"/>
      <point x="173" y="17"/>
      <point x="95" y="60"/>
      <point x="95" y="136" type="curve" smooth="yes"/>
      <point x="95" y="206"/>
      <point x="159" y="269"/>
      <point x="253" y="269" type="curve" smooth="yes"/>
      <point x="296" y="269"/>
      <point x="346" y="257"/>
      <point x="378" y="233" type="curve"/>
      <point x="328" y="171"/>
      <point x="275" y="82"/>
    </contour>
    <contour>
      <point x="265" y="10" type="curve"/>
      <point x="376" y="233"/>
      <point x="460" y="308"/>
      <point x="555" y="308" type="curve" smooth="yes"/>
      <point x="622" y="308"/>
      <point x="650" y="274"/>
      <point x="650" y="235" type="curve" smooth="yes"/>
      <point x="650" y="147"/>
      <point x="499" y="10"/>
    </contour>
  </outline>
</glyph>
<glyph name="uni0785" format="2">
  <advance width="545"/>
  <unicode hex="0785"/>
  <outline>
    <contour>
      <point x="2" y="-67" type="curve" smooth="yes"/>
      <point x="40" y="-67"/>
      <point x="146" y="-22"/>
      <point x="232" y="29" type="curve" smooth="yes"/>
      <point x="324" y="84"/>
      <point x="456" y="200"/>
      <point x="502" y="261" type="curve" smooth="yes"/>
      <point x="509" y="271"/>
      <point x="512" y="275"/>
      <point x="512" y="280" type="curve" smooth="yes"/>
      <point x="512" y="285"/>
      <point x="508" y="288"/>
      <point x="504" y="288" type="curve" smooth="yes"/>
      <point x="497" y="288"/>
      <point x="491" y="282"/>
      <point x="480" y="268" type="curve" smooth="yes"/>
      <point x="461" y="245"/>
      <point x="432" y="214"/>
      <point x="397" y="183" type="curve"/>
      <point x="344" y="195"/>
      <point x="295" y="230"/>
      <point x="295" y="276" type="curve" smooth="yes"/>
      <point x="295" y="315"/>
      <point x="323" y="338"/>
      <point x="355" y="349" type="curve" smooth="yes"/>
      <point x="373" y="355"/>
      <point x="376" y="359"/>
      <point x="376" y="365" type="curve" smooth="yes"/>
      <point x="376" y="371"/>
      <point x="372" y="375"/>
      <point x="367" y="375" type="curve" smooth="yes"/>
      <point x="361" y="375"/>
      <point x="353" y="374"/>
      <point x="339" y="368" type="curve" smooth="yes"/>
      <point x="309" y="355"/>
      <point x="272" y="332"/>
      <point x="272" y="275" type="curve" smooth="yes"/>
      <point x="272" y="217"/>
      <point x="331" y="178"/>
      <point x="378" y="165" type="curve"/>
      <point x="325" y="121"/>
      <point x="274" y="83"/>
      <point x="221" y="51" type="curve" smooth="yes"/>
      <point x="135" y="0"/>
      <point x="78" y="-22"/>
      <point x="1" y="-37" type="curve" smooth="yes"/>
      <point x="-9" y="-39"/>
      <point x="-14" y="-44"/>
      <point x="-14" y="-52" type="curve" smooth="yes"/>
      <point x="-14" y="-62"/>
      <point x="-6" y="-67"/>
    </contour>
  </outline>
</glyph>
<glyph name="uni0786" format="2">
  <advance width="550"/>
  <unicode hex="0786"/>
  <outline>
    <contour>
      <point x="59" y="-7" type="curve" smooth="yes"/>
      <point x="84" y="-7"/>
      <point x="168" y="21"/>
      <point x="252" y="71" type="curve" smooth="yes"/>
      <point x="348" y="128"/>
      <point x="460" y="228"/>
      <point x="520" y="301" type="curve" smooth="yes"/>
      <point x="527" y="310"/>
      <point x="531" y="316"/>
      <point x="531" y="321" type="curve" smooth="yes"/>
      <point x="531" y="326"/>
      <point x="526" y="328"/>
      <point x="522" y="328" type="curve" smooth="yes"/>
      <point x="515" y="328"/>
      <point x="511" y="321"/>
      <point x="499" y="308" type="curve" smooth="yes"/>
      <point x="422" y="224"/>
      <point x="338" y="149"/>
      <point x="239" y="92" type="curve" smooth="yes"/>
      <point x="165" y="50"/>
      <point x="124" y="36"/>
      <point x="78" y="26" type="curve"/>
      <point x="159" y="155"/>
      <point x="188" y="229"/>
      <point x="188" y="287" type="curve" smooth="yes"/>
      <point x="188" y="299"/>
      <point x="183" y="302"/>
      <point x="175" y="302" type="curve" smooth="yes"/>
      <point x="168" y="302"/>
      <point x="164" y="298"/>
      <point x="163" y="287" type="curve" smooth="yes"/>
      <point x="160" y="237"/>
      <point x="141" y="169"/>
      <point x="61" y="43" type="curve" smooth="yes"/>
      <point x="47" y="21"/>
      <point x="43" y="14"/>
      <point x="43" y="9" type="curve" smooth="yes"/>
      <point x="43" y="-2"/>
      <point x="51" y="-7"/>
    </contour>
  </outline>
</glyph>
<glyph name="uni0788" format="2">
  <advance width="538"/>
  <unicode hex="0788"/>
  <outline>
    <contour>
      <point x="-31" y="-91" type="curve" smooth="yes"/>
      <point x="-6" y="-91"/>
      <point x="73" y="-64"/>
      <point x="180" y="-1" type="curve" smooth="yes"/>
      <point x="272" y="53"/>
      <point x="399" y="165"/>
      <point x="442" y="216" type="curve" smooth="yes"/>
      <point x="477" y="257"/>
      <point x="492" y="288"/>
      <point x="492" y="316" type="curve" smooth="yes"/>
      <point x="492" y="362"/>
      <point x="452" y="377"/>
      <point x="406" y="377" type="curve" smooth="yes"/>
      <point x="301" y="377"/>
      <point x="203" y="298"/>
      <point x="203" y="223" type="curve" smooth="yes"/>
      <point x="203" y="179"/>
      <point x="252" y="147"/>
      <point x="335" y="143" type="curve"/>
      <point x="313" y="124"/>
      <point x="245" y="67"/>
      <point x="172" y="24" type="curve" smooth="yes"/>
      <point x="66" y="-39"/>
      <point x="23" y="-50"/>
      <point x="-32" y="-61" type="curve" smooth="yes"/>
      <point x="-42" y="-63"/>
      <point x="-47" y="-68"/>
      <point x="-47" y="-76" type="curve" smooth="yes"/>
      <point x="-47" y="-86"/>
      <point x="-39" y="-91"/>
    </contour>
    <contour>
      <point x="351" y="159" type="curve"/>
      <point x="296" y="163"/>
      <point x="226" y="175"/>
      <point x="226" y="226" type="curve" smooth="yes"/>
      <point x="226" y="292"/>
      <point x="320" y="355"/>
      <point x="404" y="355" type="curve" smooth="yes"/>
      <point x="451" y="355"/>
      <point x="469" y="335"/>
      <point x="469" y="311" type="curve" smooth="yes"/>
      <point x="469" y="279"/>
      <point x="425" y="218"/>
    </contour>
  </outline>
</glyph>
<glyph name="uni0789" format="2">
  <advance width="518"/>
  <unicode hex="0789"/>
  <outline>
    <contour>
      <point x="8" y="-20" type="curve" smooth="yes"/>
      <point x="22" y="-20"/>
      <point x="38" y="-17"/>
      <point x="66" y="-10" type="curve" smooth="yes"/>
      <point x="110" y="1"/>
      <point x="178" y="27"/>
      <point x="247" y="67" type="curve" smooth="yes"/>
      <point x="326" y="113"/>
      <point x="424" y="188"/>
      <point x="457" y="232" type="curve" smooth="yes"/>
      <point x="480" y="262"/>
      <point x="491" y="285"/>
      <point x="491" y="305" type="curve" smooth="yes"/>
      <point x="491" y="342"/>
      <point x="419" y="361"/>
      <point x="321" y="361" type="curve" smooth="yes"/>
      <point x="242" y="361"/>
      <point x="184" y="348"/>
      <point x="159" y="342" type="curve" smooth="yes"/>
      <point x="131" y="335"/>
      <point x="124" y="330"/>
      <point x="124" y="323" type="curve" smooth="yes"/>
      <point x="124" y="312"/>
      <point x="130" y="310"/>
      <point x="137" y="310" type="curve" smooth="yes"/>
      <point x="145" y="310"/>
      <point x="173" y="319"/>
      <point x="200" y="324" type="curve" smooth="yes"/>
      <point x="236" y="331"/>
      <point x="278" y="338"/>
      <point x="321" y="338" type="curve" smooth="yes"/>
      <point x="424" y="338"/>
      <point x="467" y="324"/>
      <point x="467" y="301" type="curve" smooth="yes"/>
      <point x="467" y="275"/>
      <point x="431" y="221"/>
      <point x="349" y="162" type="curve" smooth="yes"/>
      <point x="236" y="80"/>
      <point x="145" y="39"/>
      <point x="80" y="22" type="curve" smooth="yes"/>
      <point x="42" y="12"/>
      <point x="24" y="11"/>
      <point x="6" y="7" type="curve" smooth="yes"/>
      <point x="-4" y="5"/>
      <point x="-8" y="-2"/>
      <point x="-8" y="-8" type="curve" smooth="yes"/>
      <point x="-8" y="-15"/>
      <point x="-3" y="-20"/>
    </contour>
  </outline>
</glyph>
<glyph name="uni078A" format="2">
  <advance width="449"/>
  <unicode hex="078A"/>
  <outline>
    <contour>
      <point x="-27" y="-85" type="curve" smooth="yes"/>
      <point x="-7" y="-85"/>
      <point x="79" y="-46"/>
      <point x="144" y="-15" type="curve" smooth="yes"/>
      <point x="230" y="26"/>
      <point x="365" y="112"/>
      <point x="365" y="162" type="curve" smooth="yes"/>
      <point x="365" y="178"/>
      <point x="340" y="194"/>
      <point x="264" y="208" type="curve"/>
      <point x="300" y="224"/>
      <point x="330" y="236"/>
      <point x="353" y="247" type="curve" smooth="yes"/>
      <point x="409" y="274"/>
      <point x="427" y="288"/>
      <point x="427" y="306" type="curve" smooth="yes"/>
      <point x="427" y="328"/>
      <point x="363" y="345"/>
      <point x="280" y="368" type="curve"/>
      <point x="334" y="397"/>
      <point x="390" y="423"/>
      <point x="416" y="439" type="curve" smooth="yes"/>
      <point x="421" y="442"/>
      <point x="422" y="445"/>
      <point x="422" y="449" type="curve" smooth="yes"/>
      <point x="422" y="452"/>
      <point x="419" y="457"/>
      <point x="412" y="457" type="curve" smooth="yes"/>
      <point x="396" y="457"/>
      <point x="379" y="437"/>
      <point x="319" y="409" type="curve" smooth="yes"/>
      <point x="271" y="386"/>
      <point x="257" y="375"/>
      <point x="257" y="366" type="curve" smooth="yes"/>
      <point x="257" y="360"/>
      <point x="261" y="354"/>
      <point x="290" y="346" type="curve" smooth="yes"/>
      <point x="345" y="331"/>
      <point x="404" y="313"/>
      <point x="404" y="303" type="curve" smooth="yes"/>
      <point x="404" y="290"/>
      <point x="365" y="272"/>
      <point x="319" y="253" type="curve" smooth="yes"/>
      <point x="273" y="234"/>
      <point x="233" y="215"/>
      <point x="233" y="206" type="curve" smooth="yes"/>
      <point x="233" y="200"/>
      <point x="236" y="195"/>
      <point x="248" y="193" type="curve" smooth="yes"/>
      <point x="289" y="186"/>
      <point x="340" y="175"/>
      <point x="340" y="157" type="curve" smooth="yes"/>
      <point x="340" y="121"/>
      <point x="221" y="46"/>
      <point x="115" y="1" type="curve" smooth="yes"/>
      <point x="68" y="-19"/>
      <point x="26" y="-39"/>
      <point x="-15" y="-50" type="curve" smooth="yes"/>
      <point x="-39" y="-56"/>
      <point x="-47" y="-62"/>
      <point x="-47" y="-71" type="curve" smooth="yes"/>
      <point x="-47" y="-82"/>
      <point x="-40" y="-85"/>
    </contour>
  </outline>
</glyph>
<glyph name="uni078D" format="2">
  <advance width="576"/>
  <unicode hex="078D"/>
  <outline>
    <contour>
      <point x="-27" y="-85" type="curve" smooth="yes"/>
      <point x="0" y="-85"/>
      <point x="115" y="-14"/>
      <point x="201" y="43" type="curve" smooth="yes"/>
      <point x="275" y="92"/>
      <point x="421" y="228"/>
      <point x="484" y="294" type="curve" smooth="yes"/>
      <point x="503" y="314"/>
      <point x="514" y="328"/>
      <point x="514" y="331" type="curve" smooth="yes"/>
      <point x="514" y="342"/>
      <point x="507" y="346"/>
      <point x="492" y="346" type="curve" smooth="yes"/>
      <point x="457" y="345"/>
      <point x="414" y="341"/>
      <point x="370" y="337" type="curve" smooth="yes"/>
      <point x="322" y="333"/>
      <point x="274" y="329"/>
      <point x="235" y="329" type="curve"/>
      <point x="307" y="374"/>
      <point x="381" y="414"/>
      <point x="416" y="439" type="curve" smooth="yes"/>
      <point x="421" y="442"/>
      <point x="422" y="445"/>
      <point x="422" y="449" type="curve" smooth="yes"/>
      <point x="422" y="452"/>
      <point x="419" y="457"/>
      <point x="412" y="457" type="curve" smooth="yes"/>
      <point x="405" y="457"/>
      <point x="397" y="455"/>
      <point x="379" y="444" type="curve" smooth="yes"/>
      <point x="359" y="432"/>
      <point x="315" y="402"/>
      <point x="249" y="364" type="curve" smooth="yes"/>
      <point x="215" y="345"/>
      <point x="212" y="336"/>
      <point x="212" y="327" type="curve" smooth="yes"/>
      <point x="212" y="321"/>
      <point x="215" y="307"/>
      <point x="245" y="307" type="curve" smooth="yes"/>
      <point x="324" y="307"/>
      <point x="457" y="328"/>
      <point x="487" y="327" type="curve"/>
      <point x="452" y="288"/>
      <point x="293" y="137"/>
      <point x="180" y="59" type="curve" smooth="yes"/>
      <point x="109" y="10"/>
      <point x="11" y="-42"/>
      <point x="-15" y="-50" type="curve" smooth="yes"/>
      <point x="-38" y="-57"/>
      <point x="-47" y="-62"/>
      <point x="-47" y="-71" type="curve" smooth="yes"/>
      <point x="-47" y="-82"/>
      <point x="-40" y="-85"/>
    </contour>
  </outline>
</glyph>
<glyph name="uni078E" format="2">
  <advance width="500"/>
  <unicode hex="078E"/>
  <outline>
    <contour>
      <point x="79" y="-38" type="curve" smooth="yes"/>
      <point x="223" y="-38"/>
      <point x="345" y="7"/>
      <point x="345" y="76" type="curve" smooth="yes"/>
      <point x="345" y="108"/>
      <point x="319" y="136"/>
      <point x="286" y="158" type="curve" smooth="yes"/>
      <point x="257" y="178"/>
      <point x="236" y="194"/>
      <point x="236" y="215" type="curve" smooth="yes"/>
      <point x="236" y="239"/>
      <point x="267" y="264"/>
      <point x="309" y="285" type="curve" smooth="yes"/>
      <point x="366" y="314"/>
      <point x="409" y="327"/>
      <point x="461" y="342" type="curve" smooth="yes"/>
      <point x="476" y="346"/>
      <point x="482" y="350"/>
      <point x="482" y="356" type="curve" smooth="yes"/>
      <point x="482" y="361"/>
      <point x="479" y="365"/>
      <point x="470" y="365" type="curve" smooth="yes"/>
      <point x="461" y="365"/>
      <point x="456" y="363"/>
      <point x="431" y="355" type="curve" smooth="yes"/>
      <point x="404" y="346"/>
      <point x="357" y="330"/>
      <point x="306" y="305" type="curve" smooth="yes"/>
      <point x="233" y="269"/>
      <point x="214" y="240"/>
      <point x="214" y="216" type="curve" smooth="yes"/>
      <point x="214" y="195"/>
      <point x="235" y="171"/>
      <point x="268" y="148" type="curve" smooth="yes"/>
      <point x="301" y="125"/>
      <point x="323" y="105"/>
      <point x="323" y="75" type="curve" smooth="yes"/>
      <point x="323" y="19"/>
      <point x="210" y="-16"/>
      <point x="87" y="-16" type="curve" smooth="yes"/>
      <point x="43" y="-16"/>
      <point x="4" y="-5"/>
      <point x="-8" y="0" type="curve" smooth="yes"/>
      <point x="-18" y="4"/>
      <point x="-28" y="10"/>
      <point x="-37" y="10" type="curve" smooth="yes"/>
      <point x="-45" y="10"/>
      <point x="-49" y="5"/>
      <point x="-49" y="-1" type="curve" smooth="yes"/>
      <point x="-49" y="-10"/>
      <point x="-41" y="-16"/>
      <point x="-28" y="-22" type="curve" smooth="yes"/>
      <point x="-13" y="-29"/>
      <point x="33" y="-38"/>
    </contour>
  </outline>
</glyph>
<glyph name="uni078F" format="2">
  <advance width="722"/>
  <unicode hex="078F"/>
  <outline>
    <contour>
      <point x="292" y="-170" type="curve" smooth="yes"/>
      <point x="367" y="-170"/>
      <point x="427" y="-160"/>
      <point x="481" y="-147" type="curve" smooth="yes"/>
      <point x="492" y="-144"/>
      <point x="499" y="-139"/>
      <point x="499" y="-132" type="curve" smooth="yes"/>
      <point x="499" y="-126"/>
      <point x="495" y="-120"/>
      <point x="485" y="-120" type="curve" smooth="yes"/>
      <point x="475" y="-120"/>
      <point x="465" y="-123"/>
      <point x="441" y="-130" type="curve" smooth="yes"/>
      <point x="409" y="-139"/>
      <point x="373" y="-148"/>
      <point x="287" y="-148" type="curve" smooth="yes"/>
      <point x="143" y="-148"/>
      <point x="86" y="-102"/>
      <point x="86" y="-28" type="curve" smooth="yes"/>
      <point x="86" y="68"/>
      <point x="214" y="164"/>
      <point x="308" y="212" type="curve"/>
      <point x="321" y="198"/>
      <point x="334" y="184"/>
      <point x="344" y="184" type="curve" smooth="yes"/>
      <point x="361" y="184"/>
      <point x="415" y="223"/>
      <point x="476" y="296" type="curve"/>
      <point x="483" y="215"/>
      <point x="508" y="175"/>
      <point x="539" y="175" type="curve" smooth="yes"/>
      <point x="564" y="175"/>
      <point x="595" y="193"/>
      <point x="655" y="252" type="curve" smooth="yes"/>
      <point x="690" y="287"/>
      <point x="718" y="317"/>
      <point x="718" y="338" type="curve" smooth="yes"/>
      <point x="718" y="343"/>
      <point x="714" y="346"/>
      <point x="707" y="346" type="curve" smooth="yes"/>
      <point x="700" y="346"/>
      <point x="695" y="339"/>
      <point x="690" y="329" type="curve" smooth="yes"/>
      <point x="685" y="320"/>
      <point x="676" y="305"/>
      <point x="648" y="275" type="curve" smooth="yes"/>
      <point x="606" y="230"/>
      <point x="567" y="194"/>
      <point x="541" y="194" type="curve" smooth="yes"/>
      <point x="521" y="194"/>
      <point x="501" y="231"/>
      <point x="496" y="302" type="curve" smooth="yes"/>
      <point x="494" y="325"/>
      <point x="490" y="329"/>
      <point x="483" y="329" type="curve" smooth="yes"/>
      <point x="476" y="329"/>
      <point x="472" y="325"/>
      <point x="467" y="317" type="curve" smooth="yes"/>
      <point x="431" y="265"/>
      <point x="359" y="204"/>
      <point x="346" y="204" type="curve" smooth="yes"/>
      <point x="335" y="204"/>
      <point x="294" y="259"/>
      <point x="281" y="282" type="curve" smooth="yes"/>
      <point x="270" y="302"/>
      <point x="267" y="306"/>
      <point x="258" y="306" type="curve" smooth="yes"/>
      <point x="252" y="306"/>
      <point x="248" y="299"/>
      <point x="248" y="296" type="curve" smooth="yes"/>
      <point x="248" y="291"/>
      <point x="251" y="284"/>
      <point x="257" y="276" type="curve" smooth="yes"/>
      <point x="276" y="250"/>
      <point x="283" y="241"/>
      <point x="295" y="226" type="curve"/>
      <point x="207" y="178"/>
      <point x="64" y="78"/>
      <point x="64" y="-28" type="curve" smooth="yes"/>
      <point x="64" y="-112"/>
      <point x="127" y="-170"/>
    </contour>
  </outline>
</glyph>
<glyph name="uni0791" format="2">
  <advance width="390"/>
  <unicode hex="0791"/>
  <outline>
    <contour>
      <point x="258" y="-48" type="curve" smooth="yes"/>
      <point x="308" y="-48"/>
      <point x="322" y="-42"/>
      <point x="322" y="-32" type="curve" smooth="yes"/>
      <point x="322" y="-25"/>
      <point x="319" y="-21"/>
      <point x="310" y="-21" type="curve" smooth="yes"/>
      <point x="298" y="-21"/>
      <point x="282" y="-26"/>
      <point x="256" y="-26" type="curve" smooth="yes"/>
      <point x="174" y="-26"/>
      <point x="61" y="-1"/>
      <point x="61" y="58" type="curve" smooth="yes"/>
      <point x="61" y="99"/>
      <point x="135" y="129"/>
      <point x="230" y="162" type="curve" smooth="yes"/>
      <point x="269" y="175"/>
      <point x="274" y="179"/>
      <point x="274" y="190" type="curve" smooth="yes"/>
      <point x="274" y="200"/>
      <point x="264" y="206"/>
      <point x="244" y="211" type="curve" smooth="yes"/>
      <point x="221" y="217"/>
      <point x="119" y="235"/>
      <point x="74" y="246" type="curve"/>
      <point x="97" y="271"/>
      <point x="175" y="322"/>
      <point x="204" y="337" type="curve" smooth="yes"/>
      <point x="220" y="345"/>
      <point x="225" y="348"/>
      <point x="225" y="352" type="curve" smooth="yes"/>
      <point x="225" y="356"/>
      <point x="221" y="360"/>
      <point x="213" y="360" type="curve" smooth="yes"/>
      <point x="203" y="360"/>
      <point x="193" y="356"/>
      <point x="174" y="344" type="curve" smooth="yes"/>
      <point x="147" y="326"/>
      <point x="106" y="298"/>
      <point x="77" y="271" type="curve" smooth="yes"/>
      <point x="60" y="256"/>
      <point x="55" y="253"/>
      <point x="55" y="243" type="curve" smooth="yes"/>
      <point x="55" y="236"/>
      <point x="63" y="232"/>
      <point x="73" y="229" type="curve" smooth="yes"/>
      <point x="121" y="215"/>
      <point x="196" y="204"/>
      <point x="253" y="191" type="curve"/>
      <point x="154" y="156"/>
      <point x="40" y="118"/>
      <point x="40" y="56" type="curve" smooth="yes"/>
      <point x="40" y="-11"/>
      <point x="160" y="-48"/>
    </contour>
  </outline>
</glyph>
<glyph name="uni0792" format="2">
  <advance width="570"/>
  <unicode hex="0792"/>
  <outline>
    <contour>
      <point x="201" y="-150" type="curve" smooth="yes"/>
      <point x="288" y="-150"/>
      <point x="343" y="-137"/>
      <point x="369" y="-129" type="curve" smooth="yes"/>
      <point x="396" y="-121"/>
      <point x="409" y="-115"/>
      <point x="409" y="-106" type="curve" smooth="yes"/>
      <point x="409" y="-97"/>
      <point x="405" y="-96"/>
      <point x="398" y="-96" type="curve" smooth="yes"/>
      <point x="391" y="-96"/>
      <point x="383" y="-101"/>
      <point x="352" y="-109" type="curve" smooth="yes"/>
      <point x="320" y="-117"/>
      <point x="281" y="-129"/>
      <point x="201" y="-129" type="curve" smooth="yes"/>
      <point x="107" y="-129"/>
      <point x="66" y="-91"/>
      <point x="66" y="-44" type="curve" smooth="yes"/>
      <point x="66" y="40"/>
      <point x="200" y="136"/>
      <point x="323" y="198" type="curve"/>
      <point x="336" y="185"/>
      <point x="354" y="169"/>
      <point x="369" y="158" type="curve" smooth="yes"/>
      <point x="388" y="144"/>
      <point x="392" y="144"/>
      <point x="400" y="144" type="curve" smooth="yes"/>
      <point x="407" y="144"/>
      <point x="411" y="148"/>
      <point x="411" y="154" type="curve" smooth="yes"/>
      <point x="411" y="160"/>
      <point x="404" y="166"/>
      <point x="397" y="170" type="curve" smooth="yes"/>
      <point x="378" y="181"/>
      <point x="359" y="196"/>
      <point x="344" y="208" type="curve"/>
      <point x="388" y="230"/>
      <point x="432" y="246"/>
      <point x="472" y="259" type="curve" smooth="yes"/>
      <point x="513" y="272"/>
      <point x="541" y="277"/>
      <point x="541" y="285" type="curve" smooth="yes"/>
      <point x="541" y="292"/>
      <point x="537" y="296"/>
      <point x="529" y="296" type="curve" smooth="yes"/>
      <point x="512" y="296"/>
      <point x="496" y="291"/>
      <point x="455" y="278" type="curve" smooth="yes"/>
      <point x="420" y="267"/>
      <point x="374" y="248"/>
      <point x="326" y="224" type="curve"/>
      <point x="316" y="234"/>
      <point x="308" y="244"/>
      <point x="303" y="251" type="curve" smooth="yes"/>
      <point x="292" y="267"/>
      <point x="288" y="272"/>
      <point x="282" y="272" type="curve" smooth="yes"/>
      <point x="274" y="272"/>
      <point x="272" y="267"/>
      <point x="272" y="261" type="curve" smooth="yes"/>
      <point x="272" y="256"/>
      <point x="286" y="236"/>
      <point x="307" y="213" type="curve"/>
      <point x="179" y="146"/>
      <point x="42" y="45"/>
      <point x="42" y="-44" type="curve" smooth="yes"/>
      <point x="42" y="-105"/>
      <point x="93" y="-150"/>
    </contour>
  </outline>
</glyph>
<glyph name="uni0793" format="2">
  <advance width="671"/>
  <unicode hex="0793"/>
  <outline>
    <contour>
      <point x="239" y="-170" type="curve" smooth="yes"/>
      <point x="323" y="-170"/>
      <point x="380" y="-161"/>
      <point x="431" y="-147" type="curve" smooth="yes"/>
      <point x="442" y="-144"/>
      <point x="449" y="-139"/>
      <point x="449" y="-132" type="curve" smooth="yes"/>
      <point x="449" y="-126"/>
      <point x="445" y="-120"/>
      <point x="435" y="-120" type="curve" smooth="yes"/>
      <point x="425" y="-120"/>
      <point x="415" y="-123"/>
      <point x="391" y="-130" type="curve" smooth="yes"/>
      <point x="361" y="-139"/>
      <point x="327" y="-148"/>
      <point x="247" y="-148" type="curve" smooth="yes"/>
      <point x="124" y="-148"/>
      <point x="76" y="-110"/>
      <point x="76" y="-48" type="curve" smooth="yes"/>
      <point x="76" y="18"/>
      <point x="168" y="73"/>
      <point x="283" y="116" type="curve"/>
      <point x="289" y="116"/>
      <point x="294" y="116"/>
      <point x="300" y="116" type="curve" smooth="yes"/>
      <point x="486" y="116"/>
      <point x="635" y="211"/>
      <point x="635" y="303" type="curve" smooth="yes"/>
      <point x="635" y="346"/>
      <point x="601" y="383"/>
      <point x="535" y="383" type="curve" smooth="yes"/>
      <point x="470" y="383"/>
      <point x="429" y="349"/>
      <point x="394" y="316" type="curve"/>
      <point x="365" y="335"/>
      <point x="330" y="351"/>
      <point x="285" y="351" type="curve" smooth="yes"/>
      <point x="193" y="351"/>
      <point x="130" y="293"/>
      <point x="130" y="230" type="curve" smooth="yes"/>
      <point x="130" y="177"/>
      <point x="174" y="136"/>
      <point x="243" y="122" type="curve"/>
      <point x="141" y="78"/>
      <point x="54" y="22"/>
      <point x="54" y="-48" type="curve" smooth="yes"/>
      <point x="54" y="-120"/>
      <point x="109" y="-170"/>
    </contour>
    <contour>
      <point x="273" y="136" type="curve"/>
      <point x="216" y="142"/>
      <point x="151" y="173"/>
      <point x="151" y="230" type="curve" smooth="yes"/>
      <point x="151" y="283"/>
      <point x="205" y="331"/>
      <point x="283" y="331" type="curve" smooth="yes"/>
      <point x="319" y="331"/>
      <point x="357" y="321"/>
      <point x="381" y="301" type="curve"/>
      <point x="342" y="255"/>
      <point x="301" y="189"/>
    </contour>
    <contour>
      <point x="294" y="135" type="curve"/>
      <point x="386" y="306"/>
      <point x="455" y="363"/>
      <point x="535" y="363" type="curve" smooth="yes"/>
      <point x="590" y="363"/>
      <point x="614" y="335"/>
      <point x="614" y="303" type="curve" smooth="yes"/>
      <point x="614" y="227"/>
      <point x="489" y="135"/>
    </contour>
  </outline>
</glyph>
<glyph name="uni0794" format="2">
  <advance width="678"/>
  <unicode hex="0794"/>
  <outline>
    <contour>
      <point x="-29" y="-78" type="curve" smooth="yes"/>
      <point x="4" y="-78"/>
      <point x="101" y="-29"/>
      <point x="163" y="20" type="curve" smooth="yes"/>
      <point x="213" y="60"/>
      <point x="305" y="150"/>
      <point x="360" y="232" type="curve"/>
      <point x="468" y="232"/>
      <point x="523" y="260"/>
      <point x="592" y="313" type="curve"/>
      <point x="582" y="244"/>
      <point x="564" y="185"/>
      <point x="515" y="87" type="curve" smooth="yes"/>
      <point x="502" y="61"/>
      <point x="485" y="47"/>
      <point x="485" y="40" type="curve" smooth="yes"/>
      <point x="485" y="33"/>
      <point x="491" y="29"/>
      <point x="498" y="29" type="curve" smooth="yes"/>
      <point x="507" y="29"/>
      <point x="516" y="38"/>
      <point x="535" y="77" type="curve" smooth="yes"/>
      <point x="566" y="140"/>
      <point x="613" y="254"/>
      <point x="613" y="335" type="curve" smooth="yes"/>
      <point x="613" y="345"/>
      <point x="606" y="347"/>
      <point x="601" y="347" type="curve" smooth="yes"/>
      <point x="594" y="347"/>
      <point x="584" y="330"/>
      <point x="567" y="318" type="curve" smooth="yes"/>
      <point x="515" y="281"/>
      <point x="456" y="252"/>
      <point x="372" y="253" type="curve"/>
      <point x="368" y="264"/>
      <point x="351" y="280"/>
      <point x="335" y="280" type="curve" smooth="yes"/>
      <point x="323" y="280"/>
      <point x="315" y="272"/>
      <point x="315" y="262" type="curve" smooth="yes"/>
      <point x="315" y="254"/>
      <point x="324" y="246"/>
      <point x="339" y="241" type="curve"/>
      <point x="285" y="163"/>
      <point x="214" y="90"/>
      <point x="146" y="38" type="curve" smooth="yes"/>
      <point x="82" y="-11"/>
      <point x="18" y="-35"/>
      <point x="-21" y="-47" type="curve" smooth="yes"/>
      <point x="-38" y="-52"/>
      <point x="-44" y="-56"/>
      <point x="-44" y="-66" type="curve" smooth="yes"/>
      <point x="-44" y="-72"/>
      <point x="-40" y="-78"/>
    </contour>
  </outline>
</glyph>
<glyph name="uni0796" format="2">
  <advance width="583"/>
  <unicode hex="0796"/>
  <outline>
    <contour>
      <point x="239" y="-170" type="curve" smooth="yes"/>
      <point x="323" y="-170"/>
      <point x="380" y="-161"/>
      <point x="431" y="-147" type="curve" smooth="yes"/>
      <point x="442" y="-144"/>
      <point x="449" y="-139"/>
      <point x="449" y="-132" type="curve" smooth="yes"/>
      <point x="449" y="-126"/>
      <point x="445" y="-120"/>
      <point x="435" y="-120" type="curve" smooth="yes"/>
      <point x="425" y="-120"/>
      <point x="415" y="-123"/>
      <point x="391" y="-130" type="curve" smooth="yes"/>
      <point x="361" y="-139"/>
      <point x="327" y="-148"/>
      <point x="247" y="-148" type="curve" smooth="yes"/>
      <point x="124" y="-148"/>
      <point x="76" y="-110"/>
      <point x="76" y="-48" type="curve" smooth="yes"/>
      <point x="76" y="14"/>
      <point x="157" y="66"/>
      <point x="248" y="105" type="curve"/>
      <point x="264" y="101"/>
      <point x="284" y="100"/>
      <point x="302" y="100" type="curve" smooth="yes"/>
      <point x="397" y="100"/>
      <point x="493" y="173"/>
      <point x="493" y="243" type="curve" smooth="yes"/>
      <point x="493" y="278"/>
      <point x="476" y="303"/>
      <point x="425" y="323" type="curve"/>
      <point x="470" y="333"/>
      <point x="525" y="360"/>
      <point x="525" y="371" type="curve" smooth="yes"/>
      <point x="525" y="379"/>
      <point x="523" y="382"/>
      <point x="513" y="382" type="curve" smooth="yes"/>
      <point x="506" y="382"/>
      <point x="490" y="364"/>
      <point x="452" y="351" type="curve" smooth="yes"/>
      <point x="421" y="340"/>
      <point x="390" y="333"/>
      <point x="390" y="324" type="curve" smooth="yes"/>
      <point x="390" y="318"/>
      <point x="393" y="316"/>
      <point x="404" y="311" type="curve" smooth="yes"/>
      <point x="445" y="292"/>
      <point x="471" y="277"/>
      <point x="471" y="240" type="curve" smooth="yes"/>
      <point x="471" y="183"/>
      <point x="384" y="120"/>
      <point x="304" y="120" type="curve" smooth="yes"/>
      <point x="287" y="120"/>
      <point x="271" y="122"/>
      <point x="264" y="123" type="curve"/>
      <point x="257" y="136"/>
      <point x="238" y="150"/>
      <point x="224" y="150" type="curve" smooth="yes"/>
      <point x="213" y="150"/>
      <point x="205" y="142"/>
      <point x="205" y="132" type="curve" smooth="yes"/>
      <point x="205" y="124"/>
      <point x="212" y="117"/>
      <point x="222" y="113" type="curve"/>
      <point x="129" y="70"/>
      <point x="54" y="17"/>
      <point x="54" y="-48" type="curve" smooth="yes"/>
      <point x="54" y="-120"/>
      <point x="109" y="-170"/>
    </contour>
  </outline>
</glyph>
<glyph name="uni0797" format="2">
  <advance width="646"/>
  <unicode hex="0797"/>
  <outline>
    <contour>
      <point x="-16" y="-163" type="curve" smooth="yes"/>
      <point x="1" y="-163"/>
      <point x="68" y="-142"/>
      <point x="129" y="-109" type="curve" smooth="yes"/>
      <point x="184" y="-79"/>
      <point x="211" y="-47"/>
      <point x="211" y="-15" type="curve" smooth="yes"/>
      <point x="211" y="13"/>
      <point x="195" y="25"/>
      <point x="166" y="46" type="curve" smooth="yes"/>
      <point x="139" y="66"/>
      <point x="130" y="73"/>
      <point x="130" y="83" type="curve" smooth="yes"/>
      <point x="130" y="98"/>
      <point x="160" y="135"/>
      <point x="223" y="185" type="curve"/>
      <point x="260" y="100"/>
      <point x="323" y="66"/>
      <point x="394" y="66" type="curve" smooth="yes"/>
      <point x="461" y="66"/>
      <point x="519" y="111"/>
      <point x="519" y="168" type="curve" smooth="yes"/>
      <point x="519" y="224"/>
      <point x="458" y="271"/>
      <point x="332" y="269" type="curve"/>
      <point x="457" y="352"/>
      <point x="609" y="444"/>
      <point x="675" y="469" type="curve" smooth="yes"/>
      <point x="696" y="477"/>
      <point x="704" y="482"/>
      <point x="704" y="491" type="curve" smooth="yes"/>
      <point x="704" y="498"/>
      <point x="699" y="501"/>
      <point x="689" y="501" type="curve" smooth="yes"/>
      <point x="680" y="501"/>
      <point x="663" y="494"/>
      <point x="636" y="480" type="curve" smooth="yes"/>
      <point x="578" y="449"/>
      <point x="468" y="384"/>
      <point x="371" y="319" type="curve" smooth="yes"/>
      <point x="239" y="230"/>
      <point x="108" y="127"/>
      <point x="108" y="79" type="curve" smooth="yes"/>
      <point x="108" y="69"/>
      <point x="120" y="55"/>
      <point x="148" y="36" type="curve" smooth="yes"/>
      <point x="176" y="17"/>
      <point x="191" y="0"/>
      <point x="191" y="-18" type="curve" smooth="yes"/>
      <point x="191" y="-60"/>
      <point x="103" y="-107"/>
      <point x="-8" y="-135" type="curve" smooth="yes"/>
      <point x="-21" y="-138"/>
      <point x="-29" y="-141"/>
      <point x="-29" y="-151" type="curve" smooth="yes"/>
      <point x="-29" y="-159"/>
      <point x="-26" y="-163"/>
    </contour>
    <contour>
      <point x="395" y="86" type="curve" smooth="yes"/>
      <point x="317" y="86"/>
      <point x="264" y="134"/>
      <point x="239" y="199" type="curve"/>
      <point x="269" y="228"/>
      <point x="314" y="252"/>
      <point x="333" y="252" type="curve" smooth="yes"/>
      <point x="448" y="252"/>
      <point x="498" y="215"/>
      <point x="498" y="168" type="curve" smooth="yes"/>
      <point x="498" y="117"/>
      <point x="449" y="86"/>
    </contour>
  </outline>
</glyph>
<glyph name="uni0798" format="2">
  <advance width="618"/>
  <unicode hex="0798"/>
  <outline>
    <contour>
      <point x="59" y="-48" type="curve" smooth="yes"/>
      <point x="140" y="-48"/>
      <point x="256" y="-8"/>
      <point x="256" y="56" type="curve" smooth="yes"/>
      <point x="256" y="75"/>
      <point x="244" y="93"/>
      <point x="200" y="114" type="curve" smooth="yes"/>
      <point x="180" y="123"/>
      <point x="153" y="135"/>
      <point x="153" y="150" type="curve" smooth="yes"/>
      <point x="153" y="182"/>
      <point x="203" y="220"/>
      <point x="249" y="249" type="curve"/>
      <point x="299" y="198"/>
      <point x="369" y="169"/>
      <point x="427" y="169" type="curve" smooth="yes"/>
      <point x="501" y="169"/>
      <point x="574" y="218"/>
      <point x="574" y="295" type="curve" smooth="yes"/>
      <point x="574" y="336"/>
      <point x="550" y="361"/>
      <point x="488" y="361" type="curve" smooth="yes"/>
      <point x="366" y="361"/>
      <point x="130" y="227"/>
      <point x="130" y="146" type="curve" smooth="yes"/>
      <point x="130" y="132"/>
      <point x="140" y="118"/>
      <point x="176" y="102" type="curve" smooth="yes"/>
      <point x="214" y="85"/>
      <point x="234" y="73"/>
      <point x="234" y="53" type="curve" smooth="yes"/>
      <point x="234" y="0"/>
      <point x="122" y="-25"/>
      <point x="65" y="-25" type="curve" smooth="yes"/>
      <point x="42" y="-25"/>
      <point x="17" y="-21"/>
      <point x="3" y="-18" type="curve" smooth="yes"/>
      <point x="-13" y="-15"/>
      <point x="-25" y="-8"/>
      <point x="-35" y="-8" type="curve" smooth="yes"/>
      <point x="-44" y="-8"/>
      <point x="-49" y="-13"/>
      <point x="-49" y="-21" type="curve" smooth="yes"/>
      <point x="-49" y="-28"/>
      <point x="-43" y="-35"/>
      <point x="-28" y="-39" type="curve" smooth="yes"/>
      <point x="-10" y="-44"/>
      <point x="19" y="-48"/>
    </contour>
    <contour>
      <point x="427" y="192" type="curve" smooth="yes"/>
      <point x="373" y="192"/>
      <point x="315" y="220"/>
      <point x="268" y="262" type="curve"/>
      <point x="352" y="311"/>
      <point x="442" y="338"/>
      <point x="486" y="338" type="curve" smooth="yes"/>
      <point x="526" y="338"/>
      <point x="551" y="328"/>
      <point x="551" y="291" type="curve" smooth="yes"/>
      <point x="551" y="238"/>
      <point x="490" y="192"/>
    </contour>
    <contour>
      <point x="465" y="533" type="curve" smooth="yes"/>
      <point x="478" y="533"/>
      <point x="490" y="541"/>
      <point x="490" y="552" type="curve" smooth="yes"/>
      <point x="490" y="561"/>
      <point x="482" y="567"/>
      <point x="472" y="567" type="curve" smooth="yes"/>
      <point x="455" y="567"/>
      <point x="445" y="558"/>
      <point x="445" y="549" type="curve" smooth="yes"/>
      <point x="445" y="540"/>
      <point x="451" y="533"/>
    </contour>
    <contour>
      <point x="368" y="415" type="curve" smooth="yes"/>
      <point x="381" y="415"/>
      <point x="393" y="423"/>
      <point x="393" y="434" type="curve" smooth="yes"/>
      <point x="393" y="443"/>
      <point x="385" y="449"/>
      <point x="375" y="449" type="curve" smooth="yes"/>
      <point x="358" y="449"/>
      <point x="348" y="440"/>
      <point x="348" y="431" type="curve" smooth="yes"/>
      <point x="348" y="422"/>
      <point x="354" y="415"/>
    </contour>
    <contour>
      <point x="537" y="415" type="curve" smooth="yes"/>
      <point x="550" y="415"/>
      <point x="562" y="423"/>
      <point x="562" y="434" type="curve" smooth="yes"/>
      <point x="562" y="443"/>
      <point x="554" y="449"/>
      <point x="544" y="449" type="curve" smooth="yes"/>
      <point x="527" y="449"/>
      <point x="517" y="440"/>
      <point x="517" y="431" type="curve" smooth="yes"/>
      <point x="517" y="422"/>
      <point x="523" y="415"/>
    </contour>
  </outline>
</glyph>
<glyph name="uni0799" format="2">
  <advance width="529"/>
  <unicode hex="0799"/>
  <outline>
    <contour>
      <point x="42" y="-7" type="curve" smooth="yes"/>
      <point x="67" y="-7"/>
      <point x="146" y="19"/>
      <point x="227" y="66" type="curve" smooth="yes"/>
      <point x="324" y="122"/>
      <point x="448" y="231"/>
      <point x="497" y="294" type="curve" smooth="yes"/>
      <point x="509" y="310"/>
      <point x="512" y="316"/>
      <point x="512" y="321" type="curve" smooth="yes"/>
      <point x="512" y="326"/>
      <point x="509" y="328"/>
      <point x="505" y="328" type="curve" smooth="yes"/>
      <point x="498" y="328"/>
      <point x="493" y="321"/>
      <point x="482" y="308" type="curve" smooth="yes"/>
      <point x="377" y="190"/>
      <point x="273" y="121"/>
      <point x="212" y="87" type="curve" smooth="yes"/>
      <point x="167" y="62"/>
      <point x="96" y="32"/>
      <point x="41" y="23" type="curve" smooth="yes"/>
      <point x="31" y="21"/>
      <point x="26" y="16"/>
      <point x="26" y="8" type="curve" smooth="yes"/>
      <point x="26" y="-2"/>
      <point x="34" y="-7"/>
    </contour>
    <contour>
      <point x="414" y="0" type="curve" smooth="yes"/>
      <point x="427" y="0"/>
      <point x="439" y="8"/>
      <point x="439" y="19" type="curve" smooth="yes"/>
      <point x="439" y="28"/>
      <point x="431" y="34"/>
      <point x="421" y="34" type="curve" smooth="yes"/>
      <point x="404" y="34"/>
      <point x="394" y="25"/>
      <point x="394" y="16" type="curve" smooth="yes"/>
      <point x="394" y="7"/>
      <point x="400" y="0"/>
    </contour>
  </outline>
</glyph>
<glyph name="uni079A" format="2">
  <advance width="529"/>
  <unicode hex="079A"/>
  <outline>
    <contour>
      <point x="42" y="-7" type="curve" smooth="yes"/>
      <point x="67" y="-7"/>
      <point x="146" y="19"/>
      <point x="227" y="66" type="curve" smooth="yes"/>
      <point x="324" y="122"/>
      <point x="448" y="231"/>
      <point x="497" y="294" type="curve" smooth="yes"/>
      <point x="509" y="310"/>
      <point x="512" y="316"/>
      <point x="512" y="321" type="curve" smooth="yes"/>
      <point x="512" y="326"/>
      <point x="509" y="328"/>
      <point x="505" y="328" type="curve" smooth="yes"/>
      <point x="498" y="328"/>
      <point x="493" y="321"/>
      <point x="482" y="308" type="curve" smooth="yes"/>
      <point x="377" y="190"/>
      <point x="273" y="121"/>
      <point x="212" y="87" type="curve" smooth="yes"/>
      <point x="167" y="62"/>
      <point x="96" y="32"/>
      <point x="41" y="23" type="curve" smooth="yes"/>
      <point x="31" y="21"/>
      <point x="26" y="16"/>
      <point x="26" y="8" type="curve" smooth="yes"/>
      <point x="26" y="-2"/>
      <point x="34" y="-7"/>
    </contour>
    <contour>
      <point x="419" y="469" type="curve" smooth="yes"/>
      <point x="432" y="469"/>
      <point x="444" y="477"/>
      <point x="444" y="488" type="curve" smooth="yes"/>
      <point x="444" y="497"/>
      <point x="436" y="503"/>
      <point x="426" y="503" type="curve" smooth="yes"/>
      <point x="409" y="503"/>
      <point x="399" y="494"/>
      <point x="399" y="485" type="curve" smooth="yes"/>
      <point x="399" y="476"/>
      <point x="405" y="469"/>
    </contour>
  </outline>
</glyph>
<glyph name="uni079B" format="2">
  <advance width="634"/>
  <unicode hex="079B"/>
  <outline>
    <contour>
      <point x="-39" y="-80" type="curve" smooth="yes"/>
      <point x="-1" y="-80"/>
      <point x="114" y="-26"/>
      <point x="153" y="0" type="curve" smooth="yes"/>
      <point x="192" y="26"/>
      <point x="282" y="92"/>
      <point x="335" y="176" type="curve"/>
      <point x="346" y="172"/>
      <point x="359" y="170"/>
      <point x="392" y="170" type="curve" smooth="yes"/>
      <point x="487" y="170"/>
      <point x="583" y="243"/>
      <point x="583" y="313" type="curve" smooth="yes"/>
      <point x="583" y="348"/>
      <point x="566" y="373"/>
      <point x="515" y="393" type="curve"/>
      <point x="560" y="403"/>
      <point x="615" y="430"/>
      <point x="615" y="441" type="curve" smooth="yes"/>
      <point x="615" y="449"/>
      <point x="613" y="452"/>
      <point x="603" y="452" type="curve" smooth="yes"/>
      <point x="596" y="452"/>
      <point x="577" y="432"/>
      <point x="542" y="421" type="curve" smooth="yes"/>
      <point x="511" y="411"/>
      <point x="480" y="403"/>
      <point x="480" y="394" type="curve" smooth="yes"/>
      <point x="480" y="388"/>
      <point x="483" y="386"/>
      <point x="494" y="381" type="curve" smooth="yes"/>
      <point x="536" y="364"/>
      <point x="561" y="347"/>
      <point x="561" y="310" type="curve" smooth="yes"/>
      <point x="561" y="253"/>
      <point x="474" y="190"/>
      <point x="394" y="190" type="curve" smooth="yes"/>
      <point x="377" y="190"/>
      <point x="361" y="192"/>
      <point x="354" y="193" type="curve"/>
      <point x="347" y="206"/>
      <point x="328" y="220"/>
      <point x="314" y="220" type="curve" smooth="yes"/>
      <point x="303" y="220"/>
      <point x="295" y="212"/>
      <point x="295" y="202" type="curve" smooth="yes"/>
      <point x="295" y="194"/>
      <point x="302" y="187"/>
      <point x="313" y="182" type="curve"/>
      <point x="262" y="99"/>
      <point x="162" y="34"/>
      <point x="135" y="17" type="curve" smooth="yes"/>
      <point x="100" y="-5"/>
      <point x="24" y="-35"/>
      <point x="-31" y="-47" type="curve" smooth="yes"/>
      <point x="-47" y="-51"/>
      <point x="-54" y="-56"/>
      <point x="-54" y="-66" type="curve" smooth="yes"/>
      <point x="-54" y="-72"/>
      <point x="-50" y="-80"/>
    </contour>
    <contour>
      <point x="499" y="478" type="curve" smooth="yes"/>
      <point x="512" y="478"/>
      <point x="524" y="486"/>
      <point x="524" y="497" type="curve" smooth="yes"/>
      <point x="524" y="506"/>
      <point x="516" y="512"/>
      <point x="506" y="512" type="curve" smooth="yes"/>
      <point x="489" y="512"/>
      <point x="479" y="503"/>
      <point x="479" y="494" type="curve" smooth="yes"/>
      <point x="479" y="485"/>
      <point x="485" y="478"/>
    </contour>
  </outline>
</glyph>
<glyph name="uni079D" format="2">
  <advance width="1019"/>
  <unicode hex="079D"/>
  <outline>
    <contour>
      <point x="38" y="50" type="curve" smooth="yes"/>
      <point x="48" y="50"/>
      <point x="64" y="53"/>
      <point x="81" y="60" type="curve" smooth="yes"/>
      <point x="150" y="88"/>
      <point x="208" y="135"/>
      <point x="238" y="204" type="curve"/>
      <point x="321" y="190"/>
      <point x="423" y="181"/>
      <point x="558" y="181" type="curve" smooth="yes"/>
      <point x="766" y="181"/>
      <point x="863" y="217"/>
      <point x="912" y="242" type="curve" smooth="yes"/>
      <point x="949" y="261"/>
      <point x="971" y="285"/>
      <point x="985" y="309" type="curve" smooth="yes"/>
      <point x="999" y="332"/>
      <point x="1006" y="352"/>
      <point x="1006" y="366" type="curve" smooth="yes"/>
      <point x="1006" y="372"/>
      <point x="1003" y="377"/>
      <point x="994" y="377" type="curve" smooth="yes"/>
      <point x="986" y="377"/>
      <point x="984" y="373"/>
      <point x="979" y="358" type="curve" smooth="yes"/>
      <point x="965" y="316"/>
      <point x="936" y="280"/>
      <point x="889" y="255" type="curve" smooth="yes"/>
      <point x="858" y="239"/>
      <point x="744" y="202"/>
      <point x="558" y="202" type="curve" smooth="yes"/>
      <point x="432" y="202"/>
      <point x="328" y="212"/>
      <point x="248" y="225" type="curve"/>
      <point x="238" y="248"/>
      <point x="221" y="261"/>
      <point x="206" y="261" type="curve" smooth="yes"/>
      <point x="192" y="261"/>
      <point x="182" y="252"/>
      <point x="182" y="241" type="curve" smooth="yes"/>
      <point x="182" y="228"/>
      <point x="195" y="216"/>
      <point x="216" y="208" type="curve"/>
      <point x="182" y="140"/>
      <point x="133" y="99"/>
      <point x="44" y="76" type="curve" smooth="yes"/>
      <point x="31" y="73"/>
      <point x="25" y="66"/>
      <point x="25" y="61" type="curve" smooth="yes"/>
      <point x="25" y="56"/>
      <point x="27" y="50"/>
    </contour>
    <contour>
      <point x="583" y="460" type="curve" smooth="yes"/>
      <point x="596" y="460"/>
      <point x="608" y="468"/>
      <point x="608" y="479" type="curve" smooth="yes"/>
      <point x="608" y="488"/>
      <point x="600" y="494"/>
      <point x="590" y="494" type="curve" smooth="yes"/>
      <point x="573" y="494"/>
      <point x="563" y="485"/>
      <point x="563" y="476" type="curve" smooth="yes"/>
      <point x="563" y="467"/>
      <point x="569" y="460"/>
    </contour>
    <contour>
      <point x="486" y="342" type="curve" smooth="yes"/>
      <point x="499" y="342"/>
      <point x="511" y="350"/>
      <point x="511" y="361" type="curve" smooth="yes"/>
      <point x="511" y="370"/>
      <point x="503" y="376"/>
      <point x="493" y="376" type="curve" smooth="yes"/>
      <point x="476" y="376"/>
      <point x="466" y="367"/>
      <point x="466" y="358" type="curve" smooth="yes"/>
      <point x="466" y="349"/>
      <point x="472" y="342"/>
    </contour>
    <contour>
      <point x="655" y="342" type="curve" smooth="yes"/>
      <point x="668" y="342"/>
      <point x="680" y="350"/>
      <point x="680" y="361" type="curve" smooth="yes"/>
      <point x="680" y="370"/>
      <point x="672" y="376"/>
      <point x="662" y="376" type="curve" smooth="yes"/>
      <point x="645" y="376"/>
      <point x="635" y="367"/>
      <point x="635" y="358" type="curve" smooth="yes"/>
      <point x="635" y="349"/>
      <point x="641" y="342"/>
    </contour>
  </outline>
</glyph>
<glyph name="uni079E" format="2">
  <advance width="1019"/>
  <unicode hex="079E"/>
  <outline>
    <contour>
      <point x="38" y="50" type="curve" smooth="yes"/>
      <point x="48" y="50"/>
      <point x="64" y="53"/>
      <point x="81" y="60" type="curve" smooth="yes"/>
      <point x="150" y="88"/>
      <point x="208" y="135"/>
      <point x="238" y="204" type="curve"/>
      <point x="321" y="190"/>
      <point x="423" y="181"/>
      <point x="558" y="181" type="curve" smooth="yes"/>
      <point x="766" y="181"/>
      <point x="863" y="217"/>
      <point x="912" y="242" type="curve" smooth="yes"/>
      <point x="949" y="261"/>
      <point x="971" y="285"/>
      <point x="985" y="309" type="curve" smooth="yes"/>
      <point x="999" y="332"/>
      <point x="1006" y="352"/>
      <point x="1006" y="366" type="curve" smooth="yes"/>
      <point x="1006" y="372"/>
      <point x="1003" y="377"/>
      <point x="994" y="377" type="curve" smooth="yes"/>
      <point x="986" y="377"/>
      <point x="984" y="373"/>
      <point x="979" y="358" type="curve" smooth="yes"/>
      <point x="965" y="316"/>
      <point x="936" y="280"/>
      <point x="889" y="255" type="curve" smooth="yes"/>
      <point x="858" y="239"/>
      <point x="744" y="202"/>
      <point x="558" y="202" type="curve" smooth="yes"/>
      <point x="432" y="202"/>
      <point x="328" y="212"/>
      <point x="248" y="225" type="curve"/>
      <point x="238" y="248"/>
      <point x="221" y="261"/>
      <point x="206" y="261" type="curve" smooth="yes"/>
      <point x="192" y="261"/>
      <point x="182" y="252"/>
      <point x="182" y="241" type="curve" smooth="yes"/>
      <point x="182" y="228"/>
      <point x="195" y="216"/>
      <point x="216" y="208" type="curve"/>
      <point x="182" y="140"/>
      <point x="133" y="99"/>
      <point x="44" y="76" type="curve" smooth="yes"/>
      <point x="31" y="73"/>
      <point x="25" y="66"/>
      <point x="25" y="61" type="curve" smooth="yes"/>
      <point x="25" y="56"/>
      <point x="27" y="50"/>
    </contour>
    <contour>
      <point x="534" y="0" type="curve" smooth="yes"/>
      <point x="547" y="0"/>
      <point x="559" y="8"/>
      <point x="559" y="19" type="curve" smooth="yes"/>
      <point x="559" y="28"/>
      <point x="551" y="34"/>
      <point x="541" y="34" type="curve" smooth="yes"/>
      <point x="524" y="34"/>
      <point x="514" y="25"/>
      <point x="514" y="16" type="curve" smooth="yes"/>
      <point x="514" y="7"/>
      <point x="520" y="0"/>
    </contour>
  </outline>
</glyph>
<glyph name="uni079F" format="2">
  <advance width="1019"/>
  <unicode hex="079F"/>
  <outline>
    <contour>
      <point x="38" y="50" type="curve" smooth="yes"/>
      <point x="48" y="50"/>
      <point x="64" y="53"/>
      <point x="81" y="60" type="curve" smooth="yes"/>
      <point x="150" y="88"/>
      <point x="208" y="135"/>
      <point x="238" y="204" type="curve"/>
      <point x="321" y="190"/>
      <point x="423" y="181"/>
      <point x="558" y="181" type="curve" smooth="yes"/>
      <point x="766" y="181"/>
      <point x="863" y="217"/>
      <point x="912" y="242" type="curve" smooth="yes"/>
      <point x="949" y="261"/>
      <point x="971" y="285"/>
      <point x="985" y="309" type="curve" smooth="yes"/>
      <point x="999" y="332"/>
      <point x="1006" y="352"/>
      <point x="1006" y="366" type="curve" smooth="yes"/>
      <point x="1006" y="372"/>
      <point x="1003" y="377"/>
      <point x="994" y="377" type="curve" smooth="yes"/>
      <point x="986" y="377"/>
      <point x="984" y="373"/>
      <point x="979" y="358" type="curve" smooth="yes"/>
      <point x="965" y="316"/>
      <point x="936" y="280"/>
      <point x="889" y="255" type="curve" smooth="yes"/>
      <point x="858" y="239"/>
      <point x="744" y="202"/>
      <point x="558" y="202" type="curve" smooth="yes"/>
      <point x="432" y="202"/>
      <point x="328" y="212"/>
      <point x="248" y="225" type="curve"/>
      <point x="238" y="248"/>
      <point x="221" y="261"/>
      <point x="206" y="261" type="curve" smooth="yes"/>
      <point x="192" y="261"/>
      <point x="182" y="252"/>
      <point x="182" y="241" type="curve" smooth="yes"/>
      <point x="182" y="228"/>
      <point x="195" y="216"/>
      <point x="216" y="208" type="curve"/>
      <point x="182" y="140"/>
      <point x="133" y="99"/>
      <point x="44" y="76" type="curve" smooth="yes"/>
      <point x="31" y="73"/>
      <point x="25" y="66"/>
      <point x="25" y="61" type="curve" smooth="yes"/>
      <point x="25" y="56"/>
      <point x="27" y="50"/>
    </contour>
    <contour>
      <point x="579" y="381" type="curve" smooth="yes"/>
      <point x="592" y="381"/>
      <point x="604" y="389"/>
      <point x="604" y="400" type="curve" smooth="yes"/>
      <point x="604" y="409"/>
      <point x="596" y="415"/>
      <point x="586" y="415" type="curve" smooth="yes"/>
      <point x="569" y="415"/>
      <point x="559" y="406"/>
      <point x="559" y="397" type="curve" smooth="yes"/>
      <point x="559" y="388"/>
      <point x="565" y="381"/>
    </contour>
  </outline>
</glyph>
<glyph name="uni07A0" format="2">
  <advance width="649"/>
  <unicode hex="07A0"/>
  <outline>
    <contour>
      <point x="91" y="-48" type="curve" smooth="yes"/>
      <point x="172" y="-48"/>
      <point x="288" y="-8"/>
      <point x="288" y="56" type="curve" smooth="yes"/>
      <point x="288" y="75"/>
      <point x="276" y="93"/>
      <point x="232" y="114" type="curve" smooth="yes"/>
      <point x="212" y="123"/>
      <point x="185" y="135"/>
      <point x="185" y="150" type="curve" smooth="yes"/>
      <point x="185" y="182"/>
      <point x="235" y="220"/>
      <point x="281" y="249" type="curve"/>
      <point x="331" y="198"/>
      <point x="401" y="169"/>
      <point x="459" y="169" type="curve" smooth="yes"/>
      <point x="533" y="169"/>
      <point x="606" y="218"/>
      <point x="606" y="295" type="curve" smooth="yes"/>
      <point x="606" y="336"/>
      <point x="582" y="361"/>
      <point x="520" y="361" type="curve" smooth="yes"/>
      <point x="398" y="361"/>
      <point x="162" y="227"/>
      <point x="162" y="146" type="curve" smooth="yes"/>
      <point x="162" y="132"/>
      <point x="172" y="118"/>
      <point x="208" y="102" type="curve" smooth="yes"/>
      <point x="246" y="85"/>
      <point x="266" y="73"/>
      <point x="266" y="53" type="curve" smooth="yes"/>
      <point x="266" y="0"/>
      <point x="154" y="-25"/>
      <point x="97" y="-25" type="curve" smooth="yes"/>
      <point x="74" y="-25"/>
      <point x="49" y="-21"/>
      <point x="35" y="-18" type="curve" smooth="yes"/>
      <point x="19" y="-15"/>
      <point x="7" y="-8"/>
      <point x="-3" y="-8" type="curve" smooth="yes"/>
      <point x="-12" y="-8"/>
      <point x="-17" y="-13"/>
      <point x="-17" y="-21" type="curve" smooth="yes"/>
      <point x="-17" y="-28"/>
      <point x="-11" y="-35"/>
      <point x="4" y="-39" type="curve" smooth="yes"/>
      <point x="22" y="-44"/>
      <point x="51" y="-48"/>
    </contour>
    <contour>
      <point x="459" y="192" type="curve" smooth="yes"/>
      <point x="405" y="192"/>
      <point x="347" y="220"/>
      <point x="300" y="262" type="curve"/>
      <point x="384" y="311"/>
      <point x="474" y="338"/>
      <point x="518" y="338" type="curve" smooth="yes"/>
      <point x="558" y="338"/>
      <point x="583" y="328"/>
      <point x="583" y="291" type="curve" smooth="yes"/>
      <point x="583" y="238"/>
      <point x="522" y="192"/>
    </contour>
    <contour>
      <point x="405" y="-61" type="curve" smooth="yes"/>
      <point x="418" y="-61"/>
      <point x="430" y="-53"/>
      <point x="430" y="-42" type="curve" smooth="yes"/>
      <point x="430" y="-33"/>
      <point x="422" y="-27"/>
      <point x="412" y="-27" type="curve" smooth="yes"/>
      <point x="395" y="-27"/>
      <point x="385" y="-36"/>
      <point x="385" y="-45" type="curve" smooth="yes"/>
      <point x="385" y="-54"/>
      <point x="391" y="-61"/>
    </contour>
  </outline>
</glyph>
<glyph name="uni07A1" format="2">
  <advance width="649"/>
  <unicode hex="07A1"/>
  <outline>
    <contour>
      <point x="91" y="-48" type="curve" smooth="yes"/>
      <point x="172" y="-48"/>
      <point x="288" y="-8"/>
      <point x="288" y="56" type="curve" smooth="yes"/>
      <point x="288" y="75"/>
      <point x="276" y="93"/>
      <point x="232" y="114" type="curve" smooth="yes"/>
      <point x="212" y="123"/>
      <point x="185" y="135"/>
      <point x="185" y="150" type="curve" smooth="yes"/>
      <point x="185" y="182"/>
      <point x="235" y="220"/>
      <point x="281" y="249" type="curve"/>
      <point x="331" y="198"/>
      <point x="401" y="169"/>
      <point x="459" y="169" type="curve" smooth="yes"/>
      <point x="533" y="169"/>
      <point x="606" y="218"/>
      <point x="606" y="295" type="curve" smooth="yes"/>
      <point x="606" y="336"/>
      <point x="582" y="361"/>
      <point x="520" y="361" type="curve" smooth="yes"/>
      <point x="398" y="361"/>
      <point x="162" y="227"/>
      <point x="162" y="146" type="curve" smooth="yes"/>
      <point x="162" y="132"/>
      <point x="172" y="118"/>
      <point x="208" y="102" type="curve" smooth="yes"/>
      <point x="246" y="85"/>
      <point x="266" y="73"/>
      <point x="266" y="53" type="curve" smooth="yes"/>
      <point x="266" y="0"/>
      <point x="154" y="-25"/>
      <point x="97" y="-25" type="curve" smooth="yes"/>
      <point x="74" y="-25"/>
      <point x="49" y="-21"/>
      <point x="35" y="-18" type="curve" smooth="yes"/>
      <point x="19" y="-15"/>
      <point x="7" y="-8"/>
      <point x="-3" y="-8" type="curve" smooth="yes"/>
      <point x="-12" y="-8"/>
      <point x="-17" y="-13"/>
      <point x="-17" y="-21" type="curve" smooth="yes"/>
      <point x="-17" y="-28"/>
      <point x="-11" y="-35"/>
      <point x="4" y="-39" type="curve" smooth="yes"/>
      <point x="22" y="-44"/>
      <point x="51" y="-48"/>
    </contour>
    <contour>
      <point x="459" y="192" type="curve" smooth="yes"/>
      <point x="405" y="192"/>
      <point x="347" y="220"/>
      <point x="300" y="262" type="curve"/>
      <point x="384" y="311"/>
      <point x="474" y="338"/>
      <point x="518" y="338" type="curve" smooth="yes"/>
      <point x="558" y="338"/>
      <point x="583" y="328"/>
      <point x="583" y="291" type="curve" smooth="yes"/>
      <point x="583" y="238"/>
      <point x="522" y="192"/>
    </contour>
    <contour>
      <point x="494" y="478" type="curve" smooth="yes"/>
      <point x="507" y="478"/>
      <point x="519" y="486"/>
      <point x="519" y="497" type="curve" smooth="yes"/>
      <point x="519" y="506"/>
      <point x="511" y="512"/>
      <point x="501" y="512" type="curve" smooth="yes"/>
      <point x="484" y="512"/>
      <point x="474" y="503"/>
      <point x="474" y="494" type="curve" smooth="yes"/>
      <point x="474" y="485"/>
      <point x="480" y="478"/>
    </contour>
  </outline>
</glyph>
<glyph name="uni07A3" format="2">
  <advance width="538"/>
  <unicode hex="07A3"/>
  <outline>
    <contour>
      <point x="-28" y="-7" type="curve" smooth="yes"/>
      <point x="3" y="-7"/>
      <point x="75" y="20"/>
      <point x="157" y="66" type="curve" smooth="yes"/>
      <point x="258" y="123"/>
      <point x="395" y="237"/>
      <point x="446" y="299" type="curve"/>
      <point x="438" y="227"/>
      <point x="420" y="141"/>
      <point x="375" y="54" type="curve" smooth="yes"/>
      <point x="359" y="23"/>
      <point x="352" y="15"/>
      <point x="352" y="10" type="curve" smooth="yes"/>
      <point x="352" y="3"/>
      <point x="358" y="-1"/>
      <point x="365" y="-1" type="curve" smooth="yes"/>
      <point x="374" y="-1"/>
      <point x="383" y="8"/>
      <point x="402" y="47" type="curve" smooth="yes"/>
      <point x="430" y="103"/>
      <point x="470" y="237"/>
      <point x="470" y="325" type="curve" smooth="yes"/>
      <point x="470" y="335"/>
      <point x="463" y="337"/>
      <point x="458" y="337" type="curve" smooth="yes"/>
      <point x="451" y="337"/>
      <point x="436" y="321"/>
      <point x="424" y="308" type="curve" smooth="yes"/>
      <point x="334" y="215"/>
      <point x="252" y="147"/>
      <point x="142" y="87" type="curve" smooth="yes"/>
      <point x="56" y="40"/>
      <point x="26" y="34"/>
      <point x="-29" y="23" type="curve" smooth="yes"/>
      <point x="-39" y="21"/>
      <point x="-44" y="16"/>
      <point x="-44" y="8" type="curve" smooth="yes"/>
      <point x="-44" y="-2"/>
      <point x="-36" y="-7"/>
    </contour>
    <contour>
      <point x="423" y="478" type="curve" smooth="yes"/>
      <point x="436" y="478"/>
      <point x="448" y="486"/>
      <point x="448" y="497" type="curve" smooth="yes"/>
      <point x="448" y="506"/>
      <point x="440" y="512"/>
      <point x="430" y="512" type="curve" smooth="yes"/>
      <point x="413" y="512"/>
      <point x="403" y="503"/>
      <point x="403" y="494" type="curve" smooth="yes"/>
      <point x="403" y="485"/>
      <point x="409" y="478"/>
    </contour>
  </outline>
</glyph>
<glyph name="uni07A5" format="2">
  <advance width="506"/>
  <unicode hex="07A5"/>
  <outline>
    <contour>
      <point x="-63" y="-91" type="curve" smooth="yes"/>
      <point x="-38" y="-91"/>
      <point x="41" y="-64"/>
      <point x="148" y="-1" type="curve" smooth="yes"/>
      <point x="240" y="53"/>
      <point x="367" y="165"/>
      <point x="410" y="216" type="curve" smooth="yes"/>
      <point x="445" y="257"/>
      <point x="460" y="288"/>
      <point x="460" y="316" type="curve" smooth="yes"/>
      <point x="460" y="362"/>
      <point x="420" y="377"/>
      <point x="374" y="377" type="curve" smooth="yes"/>
      <point x="269" y="377"/>
      <point x="171" y="298"/>
      <point x="171" y="223" type="curve" smooth="yes"/>
      <point x="171" y="179"/>
      <point x="220" y="147"/>
      <point x="303" y="143" type="curve"/>
      <point x="281" y="124"/>
      <point x="213" y="67"/>
      <point x="140" y="24" type="curve" smooth="yes"/>
      <point x="34" y="-39"/>
      <point x="-9" y="-50"/>
      <point x="-64" y="-61" type="curve" smooth="yes"/>
      <point x="-74" y="-63"/>
      <point x="-79" y="-68"/>
      <point x="-79" y="-76" type="curve" smooth="yes"/>
      <point x="-79" y="-86"/>
      <point x="-71" y="-91"/>
    </contour>
    <contour>
      <point x="319" y="159" type="curve"/>
      <point x="264" y="163"/>
      <point x="194" y="175"/>
      <point x="194" y="226" type="curve" smooth="yes"/>
      <point x="194" y="292"/>
      <point x="288" y="355"/>
      <point x="372" y="355" type="curve" smooth="yes"/>
      <point x="419" y="355"/>
      <point x="437" y="335"/>
      <point x="437" y="311" type="curve" smooth="yes"/>
      <point x="437" y="279"/>
      <point x="393" y="218"/>
    </contour>
    <contour>
      <point x="358" y="478" type="curve" smooth="yes"/>
      <point x="371" y="478"/>
      <point x="383" y="486"/>
      <point x="383" y="497" type="curve" smooth="yes"/>
      <point x="383" y="506"/>
      <point x="375" y="512"/>
      <point x="365" y="512" type="curve" smooth="yes"/>
      <point x="348" y="512"/>
      <point x="338" y="503"/>
      <point x="338" y="494" type="curve" smooth="yes"/>
      <point x="338" y="485"/>
      <point x="344" y="478"/>
    </contour>
  </outline>
</glyph>
<glyph name="uni07A6" format="2">
  <unicode hex="07A6"/>
  <outline>
    <contour>
      <point x="24" y="467" type="curve" smooth="yes"/>
      <point x="32" y="467"/>
      <point x="45" y="471"/>
      <point x="58" y="475" type="curve" smooth="yes"/>
      <point x="139" y="501"/>
      <point x="284" y="576"/>
      <point x="333" y="619" type="curve" smooth="yes"/>
      <point x="342" y="627"/>
      <point x="344" y="629"/>
      <point x="344" y="636" type="curve" smooth="yes"/>
      <point x="344" y="639"/>
      <point x="342" y="646"/>
      <point x="334" y="646" type="curve" smooth="yes"/>
      <point x="329" y="646"/>
      <point x="326" y="643"/>
      <point x="313" y="633" type="curve" smooth="yes"/>
      <point x="222" y="562"/>
      <point x="107" y="510"/>
      <point x="30" y="489" type="curve" smooth="yes"/>
      <point x="20" y="486"/>
      <point x="14" y="483"/>
      <point x="14" y="477" type="curve" smooth="yes"/>
      <point x="14" y="471"/>
      <point x="18" y="467"/>
    </contour>
  </outline>
</glyph>
<glyph name="uni07A7" format="2">
  <unicode hex="07A7"/>
  <outline>
    <contour>
      <point x="23" y="601" type="curve" smooth="yes"/>
      <point x="31" y="601"/>
      <point x="44" y="604"/>
      <point x="57" y="609" type="curve" smooth="yes"/>
      <point x="132" y="638"/>
      <point x="265" y="712"/>
      <point x="312" y="753" type="curve" smooth="yes"/>
      <point x="321" y="761"/>
      <point x="323" y="763"/>
      <point x="323" y="770" type="curve" smooth="yes"/>
      <point x="323" y="773"/>
      <point x="321" y="780"/>
      <point x="313" y="780" type="curve" smooth="yes"/>
      <point x="308" y="780"/>
      <point x="305" y="777"/>
      <point x="292" y="767" type="curve" smooth="yes"/>
      <point x="205" y="700"/>
      <point x="100" y="644"/>
      <point x="29" y="623" type="curve" smooth="yes"/>
      <point x="19" y="620"/>
      <point x="13" y="617"/>
      <point x="13" y="611" type="curve" smooth="yes"/>
      <point x="13" y="605"/>
      <point x="17" y="601"/>
    </contour>
    <contour>
      <point x="88" y="467" type="curve" smooth="yes"/>
      <point x="96" y="467"/>
      <point x="109" y="470"/>
      <point x="122" y="475" type="curve" smooth="yes"/>
      <point x="196" y="506"/>
      <point x="332" y="576"/>
      <point x="377" y="619" type="curve" smooth="yes"/>
      <point x="386" y="627"/>
      <point x="388" y="629"/>
      <point x="388" y="636" type="curve" smooth="yes"/>
      <point x="388" y="639"/>
      <point x="386" y="646"/>
      <point x="378" y="646" type="curve" smooth="yes"/>
      <point x="373" y="646"/>
      <point x="370" y="643"/>
      <point x="357" y="633" type="curve" smooth="yes"/>
      <point x="272" y="563"/>
      <point x="165" y="512"/>
      <point x="94" y="489" type="curve" smooth="yes"/>
      <point x="84" y="486"/>
      <point x="78" y="483"/>
      <point x="78" y="477" type="curve" smooth="yes"/>
      <point x="78" y="471"/>
      <point x="82" y="467"/>
    </contour>
  </outline>
</glyph>
<glyph name="uni07A8" format="2">
  <unicode hex="07A8"/>
  <outline>
    <contour>
      <point x="-38" y="-295" type="curve" smooth="yes"/>
      <point x="-30" y="-295"/>
      <point x="-17" y="-292"/>
      <point x="-4" y="-287" type="curve" smooth="yes"/>
      <point x="76" y="-256"/>
      <point x="224" y="-184"/>
      <point x="271" y="-143" type="curve" smooth="yes"/>
      <point x="280" y="-135"/>
      <point x="282" y="-133"/>
      <point x="282" y="-126" type="curve" smooth="yes"/>
      <point x="282" y="-123"/>
      <point x="280" y="-116"/>
      <point x="272" y="-116" type="curve" smooth="yes"/>
      <point x="267" y="-116"/>
      <point x="264" y="-119"/>
      <point x="251" y="-129" type="curve" smooth="yes"/>
      <point x="160" y="-199"/>
      <point x="44" y="-250"/>
      <point x="-32" y="-273" type="curve" smooth="yes"/>
      <point x="-42" y="-276"/>
      <point x="-48" y="-279"/>
      <point x="-48" y="-285" type="curve" smooth="yes"/>
      <point x="-48" y="-291"/>
      <point x="-44" y="-295"/>
    </contour>
  </outline>
</glyph>
<glyph name="uni07A9" format="2">
  <unicode hex="07A9"/>
  <outline>
    <contour>
      <point x="23" y="-279" type="curve" smooth="yes"/>
      <point x="31" y="-279"/>
      <point x="44" y="-276"/>
      <point x="57" y="-271" type="curve" smooth="yes"/>
      <point x="132" y="-242"/>
      <point x="265" y="-168"/>
      <point x="312" y="-127" type="curve" smooth="yes"/>
      <point x="321" y="-119"/>
      <point x="323" y="-117"/>
      <point x="323" y="-110" type="curve" smooth="yes"/>
      <point x="323" y="-107"/>
      <point x="321" y="-100"/>
      <point x="313" y="-100" type="curve" smooth="yes"/>
      <point x="308" y="-100"/>
      <point x="305" y="-103"/>
      <point x="292" y="-113" type="curve" smooth="yes"/>
      <point x="205" y="-180"/>
      <point x="100" y="-236"/>
      <point x="29" y="-257" type="curve" smooth="yes"/>
      <point x="19" y="-260"/>
      <point x="13" y="-263"/>
      <point x="13" y="-269" type="curve" smooth="yes"/>
      <point x="13" y="-275"/>
      <point x="17" y="-279"/>
    </contour>
    <contour>
      <point x="88" y="-413" type="curve" smooth="yes"/>
      <point x="96" y="-413"/>
      <point x="109" y="-410"/>
      <point x="122" y="-405" type="curve" smooth="yes"/>
      <point x="197" y="-376"/>
      <point x="330" y="-302"/>
      <point x="377" y="-261" type="curve" smooth="yes"/>
      <point x="386" y="-253"/>
      <point x="388" y="-251"/>
      <point x="388" y="-244" type="curve" smooth="yes"/>
      <point x="388" y="-241"/>
      <point x="386" y="-234"/>
      <point x="378" y="-234" type="curve" smooth="yes"/>
      <point x="373" y="-234"/>
      <point x="370" y="-237"/>
      <point x="357" y="-247" type="curve" smooth="yes"/>
      <point x="270" y="-314"/>
      <point x="165" y="-370"/>
      <point x="94" y="-391" type="curve" smooth="yes"/>
      <point x="84" y="-394"/>
      <point x="78" y="-397"/>
      <point x="78" y="-403" type="curve" smooth="yes"/>
      <point x="78" y="-409"/>
      <point x="82" y="-413"/>
    </contour>
  </outline>
</glyph>
<glyph name="uni07AB" format="2">
  <unicode hex="07AB"/>
  <outline>
    <contour>
      <point x="320" y="451" type="curve" smooth="yes"/>
      <point x="347" y="451"/>
      <point x="427" y="483"/>
      <point x="495" y="526" type="curve" smooth="yes"/>
      <point x="564" y="570"/>
      <point x="586" y="590"/>
      <point x="586" y="612" type="curve" smooth="yes"/>
      <point x="586" y="638"/>
      <point x="507" y="664"/>
      <point x="414" y="664" type="curve" smooth="yes"/>
      <point x="361" y="664"/>
      <point x="349" y="656"/>
      <point x="349" y="648" type="curve" smooth="yes"/>
      <point x="349" y="642"/>
      <point x="355" y="637"/>
      <point x="369" y="637" type="curve" smooth="yes"/>
      <point x="386" y="637"/>
      <point x="408" y="641"/>
      <point x="434" y="641" type="curve" smooth="yes"/>
      <point x="484" y="641"/>
      <point x="544" y="630"/>
      <point x="565" y="610" type="curve"/>
      <point x="544" y="587"/>
      <point x="455" y="518"/>
      <point x="339" y="483" type="curve" smooth="yes"/>
      <point x="316" y="476"/>
      <point x="307" y="470"/>
      <point x="307" y="463" type="curve" smooth="yes"/>
      <point x="307" y="455"/>
      <point x="311" y="451"/>
    </contour>
    <contour>
      <point x="30" y="451" type="curve" smooth="yes"/>
      <point x="57" y="451"/>
      <point x="137" y="483"/>
      <point x="205" y="526" type="curve" smooth="yes"/>
      <point x="274" y="570"/>
      <point x="296" y="590"/>
      <point x="296" y="612" type="curve" smooth="yes"/>
      <point x="296" y="638"/>
      <point x="217" y="664"/>
      <point x="124" y="664" type="curve" smooth="yes"/>
      <point x="71" y="664"/>
      <point x="59" y="656"/>
      <point x="59" y="648" type="curve" smooth="yes"/>
      <point x="59" y="642"/>
      <point x="65" y="637"/>
      <point x="79" y="637" type="curve" smooth="yes"/>
      <point x="96" y="637"/>
      <point x="118" y="641"/>
      <point x="144" y="641" type="curve" smooth="yes"/>
      <point x="194" y="641"/>
      <point x="254" y="630"/>
      <point x="275" y="610" type="curve"/>
      <point x="254" y="587"/>
      <point x="165" y="518"/>
      <point x="49" y="483" type="curve" smooth="yes"/>
      <point x="26" y="476"/>
      <point x="17" y="470"/>
      <point x="17" y="463" type="curve" smooth="yes"/>
      <point x="17" y="455"/>
      <point x="21" y="451"/>
    </contour>
  </outline>
</glyph>
<glyph name="uni07AD" format="2">
  <unicode hex="07AD"/>
  <outline>
    <contour>
      <point x="452" y="480" type="curve" smooth="yes"/>
      <point x="524" y="480"/>
      <point x="536" y="489"/>
      <point x="536" y="497" type="curve" smooth="yes"/>
      <point x="536" y="503"/>
      <point x="530" y="508"/>
      <point x="516" y="508" type="curve" smooth="yes"/>
      <point x="499" y="508"/>
      <point x="477" y="504"/>
      <point x="451" y="504" type="curve" smooth="yes"/>
      <point x="401" y="504"/>
      <point x="342" y="515"/>
      <point x="321" y="535" type="curve"/>
      <point x="338" y="556"/>
      <point x="411" y="621"/>
      <point x="505" y="652" type="curve" smooth="yes"/>
      <point x="529" y="660"/>
      <point x="536" y="662"/>
      <point x="536" y="670" type="curve" smooth="yes"/>
      <point x="536" y="678"/>
      <point x="532" y="682"/>
      <point x="523" y="682" type="curve" smooth="yes"/>
      <point x="499" y="682"/>
      <point x="442" y="657"/>
      <point x="380" y="616" type="curve" smooth="yes"/>
      <point x="321" y="577"/>
      <point x="299" y="555"/>
      <point x="299" y="536" type="curve" smooth="yes"/>
      <point x="299" y="503"/>
      <point x="378" y="480"/>
    </contour>
    <contour>
      <point x="170" y="480" type="curve" smooth="yes"/>
      <point x="242" y="480"/>
      <point x="254" y="489"/>
      <point x="254" y="497" type="curve" smooth="yes"/>
      <point x="254" y="503"/>
      <point x="248" y="508"/>
      <point x="234" y="508" type="curve" smooth="yes"/>
      <point x="217" y="508"/>
      <point x="195" y="504"/>
      <point x="169" y="504" type="curve" smooth="yes"/>
      <point x="119" y="504"/>
      <point x="60" y="515"/>
      <point x="39" y="535" type="curve"/>
      <point x="56" y="556"/>
      <point x="129" y="621"/>
      <point x="223" y="652" type="curve" smooth="yes"/>
      <point x="247" y="660"/>
      <point x="254" y="662"/>
      <point x="254" y="670" type="curve" smooth="yes"/>
      <point x="254" y="678"/>
      <point x="250" y="682"/>
      <point x="241" y="682" type="curve" smooth="yes"/>
      <point x="217" y="682"/>
      <point x="160" y="657"/>
      <point x="98" y="616" type="curve" smooth="yes"/>
      <point x="39" y="577"/>
      <point x="17" y="555"/>
      <point x="17" y="536" type="curve" smooth="yes"/>
      <point x="17" y="503"/>
      <point x="96" y="480"/>
    </contour>
  </outline>
</glyph>
<glyph name="uni07AE" format="2">
  <unicode hex="07AE"/>
  <outline>
    <contour>
      <point x="30" y="451" type="curve" smooth="yes"/>
      <point x="60" y="451"/>
      <point x="144" y="487"/>
      <point x="210" y="529" type="curve"/>
      <point x="220" y="500"/>
      <point x="293" y="480"/>
      <point x="362" y="480" type="curve" smooth="yes"/>
      <point x="434" y="480"/>
      <point x="446" y="489"/>
      <point x="446" y="497" type="curve" smooth="yes"/>
      <point x="446" y="503"/>
      <point x="440" y="508"/>
      <point x="426" y="508" type="curve" smooth="yes"/>
      <point x="409" y="508"/>
      <point x="387" y="504"/>
      <point x="361" y="504" type="curve" smooth="yes"/>
      <point x="311" y="504"/>
      <point x="252" y="515"/>
      <point x="231" y="535" type="curve"/>
      <point x="270" y="580"/>
      <point x="349" y="630"/>
      <point x="415" y="652" type="curve" smooth="yes"/>
      <point x="439" y="660"/>
      <point x="446" y="663"/>
      <point x="446" y="670" type="curve" smooth="yes"/>
      <point x="446" y="678"/>
      <point x="442" y="682"/>
      <point x="433" y="682" type="curve" smooth="yes"/>
      <point x="410" y="682"/>
      <point x="355" y="658"/>
      <point x="294" y="619" type="curve"/>
      <point x="282" y="642"/>
      <point x="209" y="664"/>
      <point x="124" y="664" type="curve" smooth="yes"/>
      <point x="71" y="664"/>
      <point x="59" y="656"/>
      <point x="59" y="648" type="curve" smooth="yes"/>
      <point x="59" y="642"/>
      <point x="65" y="637"/>
      <point x="79" y="637" type="curve" smooth="yes"/>
      <point x="96" y="637"/>
      <point x="118" y="641"/>
      <point x="144" y="641" type="curve" smooth="yes"/>
      <point x="194" y="641"/>
      <point x="254" y="630"/>
      <point x="275" y="610" type="curve"/>
      <point x="246" y="572"/>
      <point x="118" y="504"/>
      <point x="49" y="483" type="curve" smooth="yes"/>
      <point x="25" y="476"/>
      <point x="17" y="470"/>
      <point x="17" y="463" type="curve" smooth="yes"/>
      <point x="17" y="455"/>
      <point x="21" y="451"/>
    </contour>
  </outline>
</glyph>
<glyph name="uni07AF" format="2">
  <unicode hex="07AF"/>
  <outline>
    <contour>
      <point x="141" y="456" type="curve" smooth="yes"/>
      <point x="237" y="456"/>
      <point x="297" y="500"/>
      <point x="297" y="515" type="curve" smooth="yes"/>
      <point x="297" y="524"/>
      <point x="292" y="527"/>
      <point x="286" y="527" type="curve" smooth="yes"/>
      <point x="276" y="527"/>
      <point x="237" y="479"/>
      <point x="145" y="479" type="curve" smooth="yes"/>
      <point x="90" y="479"/>
      <point x="33" y="495"/>
      <point x="33" y="557" type="curve" smooth="yes"/>
      <point x="33" y="676"/>
      <point x="226" y="808"/>
      <point x="342" y="808" type="curve" smooth="yes"/>
      <point x="393" y="808"/>
      <point x="404" y="788"/>
      <point x="404" y="762" type="curve" smooth="yes"/>
      <point x="404" y="714"/>
      <point x="370" y="691"/>
      <point x="347" y="670" type="curve" smooth="yes"/>
      <point x="334" y="659"/>
      <point x="319" y="648"/>
      <point x="319" y="640" type="curve" smooth="yes"/>
      <point x="319" y="633"/>
      <point x="323" y="628"/>
      <point x="333" y="628" type="curve" smooth="yes"/>
      <point x="344" y="628"/>
      <point x="361" y="644"/>
      <point x="377" y="658" type="curve" smooth="yes"/>
      <point x="393" y="672"/>
      <point x="427" y="713"/>
      <point x="427" y="762" type="curve" smooth="yes"/>
      <point x="427" y="805"/>
      <point x="399" y="831"/>
      <point x="347" y="831" type="curve" smooth="yes"/>
      <point x="215" y="831"/>
      <point x="12" y="692"/>
      <point x="12" y="554" type="curve" smooth="yes"/>
      <point x="12" y="480"/>
      <point x="81" y="456"/>
    </contour>
  </outline>
</glyph>
<glyph name="uni07B0" format="2">
  <unicode hex="07B0"/>
  <outline>
    <contour>
      <point x="125" y="454" type="curve" smooth="yes"/>
      <point x="215" y="454"/>
      <point x="313" y="533"/>
      <point x="313" y="632" type="curve" smooth="yes"/>
      <point x="313" y="680"/>
      <point x="277" y="710"/>
      <point x="212" y="710" type="curve" smooth="yes"/>
      <point x="102" y="710"/>
      <point x="15" y="628"/>
      <point x="15" y="551" type="curve" smooth="yes"/>
      <point x="15" y="495"/>
      <point x="56" y="454"/>
    </contour>
    <contour>
      <point x="132" y="475" type="curve" smooth="yes"/>
      <point x="69" y="475"/>
      <point x="37" y="506"/>
      <point x="37" y="550" type="curve" smooth="yes"/>
      <point x="37" y="621"/>
      <point x="116" y="690"/>
      <point x="204" y="690" type="curve" smooth="yes"/>
      <point x="263" y="690"/>
      <point x="291" y="669"/>
      <point x="291" y="628" type="curve" smooth="yes"/>
      <point x="291" y="545"/>
      <point x="204" y="475"/>
    </contour>
  </outline>
</glyph>
<glyph name="uni07B1" format="2">
  <advance width="473"/>
  <unicode hex="07B1"/>
  <outline>
    <contour>
      <point x="218" y="-192" type="curve" smooth="yes"/>
      <point x="290" y="-192"/>
      <point x="347" y="-174"/>
      <point x="387" y="-152" type="curve" smooth="yes"/>
      <point x="405" y="-142"/>
      <point x="423" y="-130"/>
      <point x="423" y="-120" type="curve" smooth="yes"/>
      <point x="423" y="-116"/>
      <point x="420" y="-112"/>
      <point x="413" y="-112" type="curve" smooth="yes"/>
      <point x="405" y="-112"/>
      <point x="398" y="-119"/>
      <point x="383" y="-127" type="curve" smooth="yes"/>
      <point x="324" y="-159"/>
      <point x="285" y="-171"/>
      <point x="218" y="-171" type="curve" smooth="yes"/>
      <point x="143" y="-171"/>
      <point x="68" y="-148"/>
      <point x="68" y="-91" type="curve" smooth="yes"/>
      <point x="68" y="-46"/>
      <point x="126" y="-7"/>
      <point x="225" y="51" type="curve" smooth="yes"/>
      <point x="362" y="131"/>
      <point x="451" y="183"/>
      <point x="451" y="269" type="curve" smooth="yes"/>
      <point x="451" y="330"/>
      <point x="383" y="361"/>
      <point x="316" y="361" type="curve" smooth="yes"/>
      <point x="234" y="361"/>
      <point x="139" y="314"/>
      <point x="139" y="243" type="curve" smooth="yes"/>
      <point x="139" y="185"/>
      <point x="227" y="155"/>
      <point x="325" y="134" type="curve"/>
      <point x="307" y="123"/>
      <point x="223" y="72"/>
      <point x="190" y="53" type="curve" smooth="yes"/>
      <point x="125" y="15"/>
      <point x="47" y="-34"/>
      <point x="47" y="-91" type="curve" smooth="yes"/>
      <point x="47" y="-162"/>
      <point x="129" y="-192"/>
    </contour>
    <contour>
      <point x="348" y="148" type="curve"/>
      <point x="262" y="166"/>
      <point x="160" y="197"/>
      <point x="160" y="244" type="curve" smooth="yes"/>
      <point x="160" y="299"/>
      <point x="244" y="340"/>
      <point x="311" y="340" type="curve" smooth="yes"/>
      <point x="395" y="340"/>
      <point x="431" y="305"/>
      <point x="431" y="266" type="curve" smooth="yes"/>
      <point x="431" y="218"/>
      <point x="393" y="182"/>
    </contour>
  </outline>
</glyph>
<glyph name="quoteleft" format="2">
  <advance width="342"/>
  <unicode hex="2018"/>
  <outline>
    <contour>
      <point x="134" y="613" type="curve" smooth="yes"/>
      <point x="157" y="613"/>
      <point x="173" y="628"/>
      <point x="173" y="646" type="curve" smooth="yes"/>
      <point x="173" y="661"/>
      <point x="157" y="673"/>
      <point x="134" y="678" type="curve"/>
      <point x="146" y="715"/>
      <point x="168" y="747"/>
      <point x="176" y="757" type="curve" smooth="yes"/>
      <point x="183" y="766"/>
      <point x="186" y="770"/>
      <point x="186" y="774" type="curve" smooth="yes"/>
      <point x="186" y="777"/>
      <point x="182" y="779"/>
      <point x="179" y="779" type="curve" smooth="yes"/>
      <point x="172" y="779"/>
      <point x="161" y="770"/>
      <point x="145" y="747" type="curve" smooth="yes"/>
      <point x="135" y="732"/>
      <point x="98" y="675"/>
      <point x="98" y="646" type="curve" smooth="yes"/>
      <point x="98" y="621"/>
      <point x="112" y="613"/>
    </contour>
  </outline>
</glyph>
<glyph name="quoteright" format="2">
  <advance width="342"/>
  <unicode hex="2019"/>
  <outline>
    <contour>
      <point x="214" y="614" type="curve" smooth="yes"/>
      <point x="221" y="614"/>
      <point x="232" y="623"/>
      <point x="248" y="646" type="curve" smooth="yes"/>
      <point x="258" y="661"/>
      <point x="295" y="718"/>
      <point x="295" y="747" type="curve" smooth="yes"/>
      <point x="295" y="772"/>
      <point x="281" y="780"/>
      <point x="259" y="780" type="curve" smooth="yes"/>
      <point x="236" y="780"/>
      <point x="220" y="765"/>
      <point x="220" y="747" type="curve" smooth="yes"/>
      <point x="220" y="732"/>
      <point x="236" y="720"/>
      <point x="259" y="715" type="curve"/>
      <point x="247" y="678"/>
      <point x="225" y="646"/>
      <point x="217" y="636" type="curve" smooth="yes"/>
      <point x="210" y="627"/>
      <point x="207" y="623"/>
      <point x="207" y="620" type="curve" smooth="yes"/>
      <point x="207" y="615"/>
      <point x="211" y="614"/>
    </contour>
  </outline>
</glyph>
<glyph name="quotedblleft" format="2">
  <advance width="562"/>
  <unicode hex="201C"/>
  <outline>
    <contour>
      <point x="336" y="613" type="curve" smooth="yes"/>
      <point x="359" y="613"/>
      <point x="375" y="628"/>
      <point x="375" y="646" type="curve" smooth="yes"/>
      <point x="375" y="661"/>
      <point x="359" y="673"/>
      <point x="336" y="678" type="curve"/>
      <point x="348" y="715"/>
      <point x="370" y="747"/>
      <point x="378" y="757" type="curve" smooth="yes"/>
      <point x="385" y="766"/>
      <point x="388" y="770"/>
      <point x="388" y="774" type="curve" smooth="yes"/>
      <point x="388" y="777"/>
      <point x="384" y="779"/>
      <point x="381" y="779" type="curve" smooth="yes"/>
      <point x="374" y="779"/>
      <point x="363" y="770"/>
      <point x="347" y="747" type="curve" smooth="yes"/>
      <point x="337" y="732"/>
      <point x="300" y="675"/>
      <point x="300" y="646" type="curve" smooth="yes"/>
      <point x="300" y="621"/>
      <point x="314" y="613"/>
    </contour>
    <contour>
      <point x="164" y="613" type="curve" smooth="yes"/>
      <point x="187" y="613"/>
      <point x="203" y="628"/>
      <point x="203" y="646" type="curve" smooth="yes"/>
      <point x="203" y="661"/>
      <point x="187" y="673"/>
      <point x="164" y="678" type="curve"/>
      <point x="176" y="715"/>
      <point x="198" y="747"/>
      <point x="206" y="757" type="curve" smooth="yes"/>
      <point x="213" y="766"/>
      <point x="216" y="770"/>
      <point x="216" y="774" type="curve" smooth="yes"/>
      <point x="216" y="777"/>
      <point x="212" y="779"/>
      <point x="209" y="779" type="curve" smooth="yes"/>
      <point x="202" y="779"/>
      <point x="191" y="770"/>
      <point x="175" y="747" type="curve" smooth="yes"/>
      <point x="165" y="732"/>
      <point x="128" y="675"/>
      <point x="128" y="646" type="curve" smooth="yes"/>
      <point x="128" y="621"/>
      <point x="142" y="613"/>
    </contour>
  </outline>
</glyph>
<glyph name="quotedblright" format="2">
  <advance width="562"/>
  <unicode hex="201D"/>
  <outline>
    <contour>
      <point x="347" y="614" type="curve" smooth="yes"/>
      <point x="354" y="614"/>
      <point x="365" y="623"/>
      <point x="381" y="646" type="curve" smooth="yes"/>
      <point x="391" y="661"/>
      <point x="428" y="718"/>
      <point x="428" y="747" type="curve" smooth="yes"/>
      <point x="428" y="772"/>
      <point x="414" y="780"/>
      <point x="392" y="780" type="curve" smooth="yes"/>
      <point x="369" y="780"/>
      <point x="353" y="765"/>
      <point x="353" y="747" type="curve" smooth="yes"/>
      <point x="353" y="732"/>
      <point x="369" y="720"/>
      <point x="392" y="715" type="curve"/>
      <point x="380" y="678"/>
      <point x="358" y="646"/>
      <point x="350" y="636" type="curve" smooth="yes"/>
      <point x="343" y="627"/>
      <point x="340" y="623"/>
      <point x="340" y="620" type="curve" smooth="yes"/>
      <point x="340" y="615"/>
      <point x="344" y="614"/>
    </contour>
    <contour>
      <point x="175" y="614" type="curve" smooth="yes"/>
      <point x="182" y="614"/>
      <point x="193" y="623"/>
      <point x="209" y="646" type="curve" smooth="yes"/>
      <point x="219" y="661"/>
      <point x="256" y="718"/>
      <point x="256" y="747" type="curve" smooth="yes"/>
      <point x="256" y="772"/>
      <point x="242" y="780"/>
      <point x="220" y="780" type="curve" smooth="yes"/>
      <point x="197" y="780"/>
      <point x="181" y="765"/>
      <point x="181" y="747" type="curve" smooth="yes"/>
      <point x="181" y="732"/>
      <point x="197" y="720"/>
      <point x="220" y="715" type="curve"/>
      <point x="208" y="678"/>
      <point x="186" y="646"/>
      <point x="178" y="636" type="curve" smooth="yes"/>
      <point x="171" y="627"/>
      <point x="168" y="623"/>
      <point x="168" y="620" type="curve" smooth="yes"/>
      <point x="168" y="615"/>
      <point x="172" y="614"/>
    </contour>
  </outline>
</glyph>
<glyph name="uniFDF2" format="2">
  <advance width="967"/>
  <unicode hex="FDF2"/>
  <outline>
    <contour>
      <point x="416" y="0" type="curve" smooth="yes"/>
      <point x="459" y="0"/>
      <point x="480" y="6"/>
      <point x="517" y="30" type="curve"/>
      <point x="536" y="11"/>
      <point x="563" y="2"/>
      <point x="596" y="2" type="curve" smooth="yes"/>
      <point x="669" y="2"/>
      <point x="712" y="43"/>
      <point x="729" y="71" type="curve" smooth="yes"/>
      <point x="743" y="95"/>
      <point x="745" y="109"/>
      <point x="745" y="128" type="curve"/>
      <point x="743" y="207"/>
      <point x="739" y="293"/>
      <point x="726" y="565" type="curve"/>
      <point x="714" y="553"/>
      <point x="707" y="544"/>
      <point x="697" y="527" type="curve"/>
      <point x="706" y="381"/>
      <point x="717" y="226"/>
      <point x="724" y="86" type="curve"/>
      <point x="684" y="48"/>
      <point x="646" y="30"/>
      <point x="599" y="30" type="curve" smooth="yes"/>
      <point x="573" y="30"/>
      <point x="553" y="37"/>
      <point x="531" y="50" type="curve"/>
      <point x="519" y="448" type="line"/>
      <point x="502" y="439"/>
      <point x="498" y="436"/>
      <point x="486" y="423" type="curve"/>
      <point x="511" y="53" type="line"/>
      <point x="478" y="36"/>
      <point x="448" y="28"/>
      <point x="414" y="28" type="curve" smooth="yes"/>
      <point x="380" y="28"/>
      <point x="351" y="34"/>
      <point x="315" y="50" type="curve"/>
      <point x="286" y="372" type="line"/>
      <point x="273" y="365"/>
      <point x="264" y="359"/>
      <point x="256" y="352" type="curve"/>
      <point x="261" y="317" type="line"/>
      <point x="187" y="287"/>
      <point x="112" y="235"/>
      <point x="81" y="171" type="curve" smooth="yes"/>
      <point x="74" y="156"/>
      <point x="68" y="145"/>
      <point x="68" y="131" type="curve" smooth="yes"/>
      <point x="68" y="97"/>
      <point x="170" y="61"/>
      <point x="257" y="58" type="curve"/>
      <point x="267" y="65"/>
      <point x="278" y="72"/>
      <point x="287" y="80" type="curve"/>
      <point x="302" y="20"/>
      <point x="330" y="0"/>
    </contour>
    <contour>
      <point x="287" y="84" type="curve"/>
      <point x="207" y="85"/>
      <point x="139" y="97"/>
      <point x="85" y="133" type="curve"/>
      <point x="119" y="223"/>
      <point x="191" y="265"/>
      <point x="264" y="297" type="curve"/>
      <point x="270" y="227"/>
      <point x="281" y="154"/>
    </contour>
    <contour>
      <point x="433" y="496" type="curve" smooth="yes"/>
      <point x="455" y="496"/>
      <point x="477" y="515"/>
      <point x="483" y="542" type="curve"/>
      <point x="494" y="525"/>
      <point x="512" y="519"/>
      <point x="525" y="519" type="curve" smooth="yes"/>
      <point x="557" y="519"/>
      <point x="581" y="527"/>
      <point x="581" y="558" type="curve" smooth="yes"/>
      <point x="581" y="576"/>
      <point x="575" y="622"/>
      <point x="560" y="651" type="curve"/>
      <point x="549" y="649"/>
      <point x="545" y="643"/>
      <point x="545" y="630" type="curve"/>
      <point x="545" y="621" type="line"/>
      <point x="555" y="596"/>
      <point x="560" y="579"/>
      <point x="562" y="570" type="curve"/>
      <point x="559" y="560"/>
      <point x="548" y="542"/>
      <point x="531" y="542" type="curve" smooth="yes"/>
      <point x="500" y="542"/>
      <point x="492" y="570"/>
      <point x="488" y="616" type="curve"/>
      <point x="470" y="604" type="line"/>
      <point x="471" y="547"/>
      <point x="467" y="520"/>
      <point x="437" y="520" type="curve" smooth="yes"/>
      <point x="421" y="520"/>
      <point x="410" y="528"/>
      <point x="410" y="550" type="curve" smooth="yes"/>
      <point x="410" y="564"/>
      <point x="412" y="575"/>
      <point x="414" y="586" type="curve"/>
      <point x="398" y="591" type="line"/>
      <point x="389" y="574"/>
      <point x="387" y="563"/>
      <point x="387" y="546" type="curve" smooth="yes"/>
      <point x="387" y="517"/>
      <point x="404" y="496"/>
    </contour>
    <contour>
      <point x="484" y="648" type="line"/>
      <point x="486" y="666"/>
      <point x="488" y="686"/>
      <point x="488" y="711" type="curve" smooth="yes"/>
      <point x="488" y="739"/>
      <point x="486" y="764"/>
      <point x="477" y="790" type="curve"/>
      <point x="468" y="788"/>
      <point x="458" y="782"/>
      <point x="458" y="764" type="curve"/>
      <point x="458" y="749"/>
      <point x="473" y="668"/>
      <point x="473" y="651" type="curve"/>
    </contour>
    <contour>
      <point x="863" y="26" type="curve"/>
      <point x="878" y="34" type="line"/>
      <point x="881" y="141"/>
      <point x="875" y="497"/>
      <point x="875" y="551" type="curve"/>
      <point x="903" y="570" type="line"/>
      <point x="895" y="582"/>
      <point x="888" y="593"/>
      <point x="880" y="605" type="curve"/>
      <point x="852" y="597"/>
      <point x="840" y="576"/>
      <point x="840" y="527" type="curve" smooth="yes"/>
      <point x="840" y="478"/>
      <point x="859" y="226"/>
    </contour>
  </outline>
</glyph>
